<?xml version="1.0" encoding="utf-8"?>
<!-- Generator: Adobe Illustrator 27.5.0, SVG Export Plug-In . SVG Version: 6.00 Build 0)  -->
<svg version="1.1" id="Capa_1" xmlns="http://www.w3.org/2000/svg" xmlns:xlink="http://www.w3.org/1999/xlink" x="0px" y="0px"
	 viewBox="0 0 1916 2350" style="enable-background:new 0 0 1916 2350;" xml:space="preserve">
<g>
	<path style="fill:#4EAF47;" d="M1246.916,735.607c16.489-3.271,27.34-8.992,29.078-18.119c0.314-1.647,0.597-3.232,0.856-4.77
		c0.047-0.275,0.085-0.535,0.13-0.807c0.213-1.3,0.415-2.578,0.592-3.807c0.021-0.154,0.04-0.301,0.062-0.453
		c0.189-1.347,0.361-2.661,0.508-3.928c0.005-0.042,0.009-0.082,0.013-0.123c0.155-1.348,0.287-2.656,0.397-3.925
		c0-0.009,0.001-0.018,0.002-0.027l0,0c0.468-5.485,0.514-10.266,0.206-14.647l-0.002-0.02c-0.087-1.244-0.209-2.453-0.35-3.644
		c-0.018-0.156-0.038-0.314-0.057-0.469c-0.304-2.42-0.712-4.751-1.213-7.057c-0.027-0.123-0.054-0.246-0.081-0.369
		c-1.649-7.438-4.227-14.689-7.189-23.971c-0.312-0.979-0.627-1.978-0.947-3.004c-0.153-0.491-0.305-0.986-0.46-1.489
		c-0.341-1.111-0.686-2.255-1.033-3.428c-0.111-0.373-0.22-0.732-0.33-1.112c-0.444-1.516-0.892-3.096-1.343-4.728
		c-0.115-0.418-0.23-0.851-0.346-1.277c-0.371-1.365-0.742-2.776-1.116-4.229c-0.119-0.461-0.237-0.913-0.354-1.385
		c-0.465-1.843-0.929-3.751-1.392-5.746c-0.079-0.344-0.158-0.709-0.238-1.058c-0.394-1.721-0.787-3.508-1.178-5.349
		c-0.122-0.579-0.245-1.158-0.368-1.75c-0.464-2.244-0.926-4.548-1.383-6.98c-0.552-2.947-1.025-5.9-1.461-8.854
		c-0.074-0.499-0.151-0.997-0.223-1.495c-0.396-2.792-0.743-5.584-1.053-8.374c-0.069-0.617-0.135-1.233-0.199-1.849
		c-0.29-2.752-0.552-5.502-0.777-8.245c-0.046-0.568-0.085-1.133-0.129-1.701c-0.18-2.317-0.341-4.629-0.486-6.935
		c-0.049-0.765-0.102-1.531-0.147-2.294c-0.135-2.277-0.252-4.544-0.364-6.805c-1.762-35.748-1.269-69.31-15.281-93.695
		c-0.003-0.003-0.003-0.007-0.005-0.01v0.001c-3.073-5.347-6.854-10.249-11.504-14.638v-0.003c-0.448-0.417-0.865-0.854-1.327-1.267
		c0,0-28.511-13.415-49.701-0.382c0,0,0.044,0,0.09,0c-16.937,1.421-34.253,7.838-51.368,17.583c1.033-1.72,2.026-3.427,3.035-5.138
		c0.415-0.706,0.84-1.415,1.251-2.119c1.762-3.016,3.484-6.015,5.163-8.995c0.084-0.15,0.173-0.303,0.259-0.453
		c3.657-6.505,7.094-12.909,10.284-19.178c0.113-0.221,0.216-0.437,0.327-0.658c1.422-2.806,2.789-5.583,4.101-8.328
		c0.266-0.554,0.516-1.099,0.775-1.65c1.143-2.419,2.243-4.812,3.292-7.176c0.285-0.642,0.56-1.278,0.838-1.916
		c0.993-2.275,1.937-4.521,2.836-6.739c0.254-0.627,0.507-1.252,0.752-1.873c0.895-2.26,1.732-4.483,2.522-6.677
		c0.183-0.512,0.377-1.028,0.555-1.537c0.843-2.399,1.613-4.751,2.318-7.059c0.08-0.264,0.173-0.535,0.251-0.798
		c2.361-7.876,3.883-15.188,4.423-21.803c0.018-0.224,0.018-0.436,0.034-0.659c0.137-1.901,0.193-3.743,0.16-5.521
		c-0.007-0.406-0.039-0.795-0.054-1.195c-0.065-1.568-0.195-3.087-0.404-4.55c-0.029-0.203-0.025-0.432-0.057-0.633
		c-0.013,0.015-0.027,0.035-0.04,0.051c-0.145-0.925-0.248-1.882-0.455-2.761c0,0,1.165-32.631-50.114-39.624
		c-35.753-4.875-86.229-39.189-130.112-54.794c-0.001-0.001-0.003-0.002-0.004-0.003c-0.039-0.014-0.076-0.025-0.117-0.039
		c-2.206-0.784-4.396-1.514-6.567-2.195c-0.249-0.079-0.497-0.157-0.747-0.233c-2.067-0.639-4.114-1.227-6.142-1.762
		c-0.217-0.057-0.435-0.12-0.653-0.176c-4.445-1.148-8.793-2.036-13.016-2.594c-0.293-0.039-0.578-0.059-0.869-0.095
		c-1.7-0.208-3.379-0.361-5.036-0.459c-0.587-0.034-1.164-0.048-1.747-0.068c-1.365-0.047-2.712-0.051-4.044-0.014
		c-0.64,0.017-1.278,0.038-1.912,0.075c-1.312,0.078-2.602,0.216-3.879,0.383c-0.563,0.073-1.133,0.125-1.689,0.217
		c-1.794,0.296-3.559,0.662-5.275,1.153c-48.949,13.984-6.615,347.263,7.371,375.233c0.003,0.007,0.007,0.013,0.01,0.019
		c-7.162,0.077-14.926,1.829-22.24,6.953c0,0-24.19-15.015-44.883-4.858c-0.211-1.741-0.428-3.516-0.654-5.331
		c-0.011-0.086-0.023-0.178-0.033-0.265c-0.315-2.521-0.648-5.13-0.991-7.785c-0.065-0.507-0.13-1.007-0.196-1.518
		c-0.348-2.668-0.71-5.4-1.085-8.188c-0.068-0.506-0.138-1.017-0.207-1.527c-0.806-5.945-1.675-12.139-2.608-18.547
		c-0.058-0.4-0.116-0.795-0.174-1.198c-0.467-3.196-0.951-6.444-1.448-9.736c-0.056-0.369-0.113-0.739-0.169-1.109
		c-1.045-6.888-2.158-13.967-3.336-21.192c-0.036-0.225-0.073-0.449-0.109-0.676c-0.594-3.625-1.203-7.287-1.829-10.977
		c-0.035-0.208-0.071-0.417-0.106-0.625c-1.951-11.472-4.056-23.221-6.32-35.058c-0.01-0.053-0.021-0.106-0.031-0.159
		c-0.769-4.022-1.562-8.054-2.368-12.089c-0.184-0.928-0.371-1.853-0.558-2.781c-1.656-8.219-3.384-16.434-5.186-24.595
		c-0.15-0.685-0.303-1.368-0.456-2.052c-1.856-8.339-3.786-16.603-5.792-24.737c-0.127-0.512-0.253-1.021-0.38-1.532
		c-2.05-8.254-4.177-16.357-6.38-24.246c-0.1-0.364-0.203-0.724-0.306-1.087c-2.24-7.982-4.558-15.734-6.954-23.185
		c-0.075-0.235-0.151-0.467-0.227-0.702c-2.427-7.516-4.932-14.718-7.513-21.532c-0.06-0.155-0.119-0.307-0.177-0.462
		c-2.605-6.849-5.286-13.299-8.045-19.276c-0.044-0.093-0.086-0.182-0.128-0.274c-1.373-2.963-2.763-5.811-4.174-8.529
		c-0.011-0.023-0.023-0.047-0.035-0.07c-1.432-2.756-2.882-5.378-4.353-7.861c-0.034-0.058-0.069-0.113-0.103-0.171
		c-1.429-2.407-2.877-4.675-4.341-6.805c-0.035-0.051-0.069-0.112-0.104-0.163c0.001,0.004,0.002,0.009,0.004,0.013
		c-8.496-12.307-17.588-19.838-27.249-20.698c-58.975-5.244-72.134,40.207-96.608,62.934
		c-19.302,17.923-52.672,21.767-73.655,35.438c-0.013-0.001-0.026-0.003-0.04-0.004c-1.263,0.822-2.467,1.691-3.638,2.586
		c-0.299,0.229-0.59,0.466-0.884,0.702c-0.955,0.765-1.876,1.558-2.756,2.384c-0.578,0.542-1.106,1.124-1.648,1.695
		c-0.601,0.633-1.215,1.254-1.767,1.925c-1.099,1.331-2.124,2.725-3.021,4.222c-15.734,26.223,0,50.696,0,50.696
		c9.832,15.075,24.641,32.056,42.215,49.697c-0.626-0.282-1.227-0.524-1.851-0.804c-5.023-2.248-9.996-4.416-14.892-6.461
		c-0.79-0.331-1.565-0.639-2.351-0.963c-5.25-2.167-10.437-4.238-15.495-6.132c-0.276-0.103-0.548-0.202-0.823-0.305
		c-2.079-0.774-4.139-1.521-6.18-2.243c-0.465-0.165-0.927-0.327-1.39-0.488c-1.858-0.65-3.697-1.276-5.521-1.881
		c-0.522-0.174-1.045-0.349-1.565-0.518c-1.822-0.595-3.621-1.161-5.404-1.707c-0.449-0.138-0.904-0.282-1.352-0.417
		c-2.05-0.618-4.072-1.202-6.068-1.753c-0.15-0.042-0.305-0.088-0.454-0.129c-2.19-0.6-4.347-1.159-6.469-1.674
		c-0.203-0.049-0.398-0.089-0.599-0.138c-1.818-0.435-3.609-0.84-5.371-1.21c-0.615-0.129-1.215-0.239-1.822-0.36
		c-1.334-0.265-2.656-0.517-3.955-0.742c-0.706-0.122-1.4-0.23-2.095-0.34c-1.182-0.187-2.349-0.358-3.501-0.508
		c-0.706-0.092-1.407-0.18-2.1-0.259c-1.123-0.128-2.223-0.231-3.315-0.322c-0.664-0.055-1.332-0.116-1.983-0.158
		c-1.147-0.073-2.262-0.111-3.371-0.14c-0.541-0.014-1.096-0.044-1.627-0.047c-1.616-0.012-3.197,0.017-4.723,0.106
		c0,0-20.102,6.118-21.851,38.459c-1.095,20.244,9.614,51.25,5.244,69.328c-3.325,13.754-25.331,88.848-17.217,142.863l-54.217,9.54
		v160.406l17.187,2.651v1110.017l164.534,23.045c1.243,0.277,140.875,31.303,152.387,21.346l269.331,37.724l185.279-32.431
		l-0.003,0.22L1375.193,2042v-0.413l80.937-14.167V957.911l21.484-2.095V783.948L1246.916,735.607z"/>
	<polygon style="fill:#3C8C35;" points="1375.193,965.803 1375.193,883.715 1235.267,908.658 1234.726,979.498 1041.146,998.373 
		1041.146,2100.059 1226.425,2067.629 1226.423,2067.849 1375.193,2042 1375.193,2041.587 1456.13,2027.42 1456.13,957.911 	"/>
	<g>
		<polygon style="fill:#3C8C35;" points="1375.193,965.803 1375.193,2041.587 1456.129,2027.42 1456.129,957.911 		"/>
	</g>
	<polygon style="fill:#317330;" points="1375.193,1019.804 1456.129,1010.606 1456.129,957.911 1375.193,965.803 	"/>
	<polygon style="fill:#317330;" points="1041.146,1057.765 1234.297,1035.815 1234.727,979.498 1041.146,998.373 	"/>
	<polygon style="fill:#367D32;" points="1059.146,1077.486 1059.146,2007.381 1093.426,1999.172 1209.191,1339.848 
		1209.191,1057.765 	"/>
	<polygon style="fill:#367D32;" points="1443.737,1415.722 1443.737,1033.872 1390.129,1055.232 1390.129,1932.374 	"/>
	<path style="fill:#FDC736;" d="M1054.043,739.159l40.608-7.213c53.764,6.292,116.381,10.781,152.266,3.661
		c16.489-3.271,27.34-8.992,29.078-18.119c0.314-1.647,0.597-3.232,0.856-4.77c0.047-0.275,0.085-0.535,0.13-0.807
		c0.213-1.3,0.415-2.578,0.592-3.807c0.021-0.154,0.04-0.301,0.062-0.453c0.189-1.347,0.361-2.661,0.508-3.928
		c0.005-0.042,0.009-0.082,0.013-0.123c0.155-1.348,0.287-2.656,0.397-3.925c0-0.009,0.001-0.018,0.002-0.027l0,0
		c0.468-5.485,0.514-10.266,0.206-14.647l-0.002-0.02c-0.087-1.244-0.209-2.453-0.35-3.644c-0.018-0.156-0.038-0.314-0.057-0.469
		c-0.304-2.42-0.712-4.751-1.213-7.057c-0.027-0.123-0.054-0.246-0.081-0.369c-1.649-7.438-4.227-14.689-7.189-23.971
		c-0.312-0.979-0.627-1.978-0.947-3.004c-0.153-0.491-0.305-0.986-0.46-1.489c-0.341-1.111-0.686-2.255-1.033-3.428
		c-0.111-0.373-0.22-0.732-0.33-1.112c-0.444-1.516-0.892-3.096-1.343-4.728c-0.115-0.418-0.23-0.851-0.346-1.277
		c-0.371-1.365-0.742-2.776-1.116-4.229c-0.119-0.461-0.237-0.913-0.354-1.385c-0.465-1.843-0.929-3.751-1.392-5.746
		c-0.079-0.344-0.158-0.709-0.238-1.058c-0.394-1.721-0.787-3.508-1.178-5.349c-0.122-0.579-0.245-1.158-0.368-1.75
		c-0.464-2.244-0.926-4.548-1.383-6.98c-0.552-2.947-1.025-5.9-1.461-8.854c-0.074-0.499-0.151-0.997-0.223-1.495
		c-0.396-2.792-0.743-5.584-1.053-8.374c-0.069-0.617-0.135-1.233-0.199-1.849c-0.29-2.752-0.552-5.502-0.777-8.245
		c-0.046-0.568-0.085-1.133-0.129-1.701c-0.18-2.317-0.341-4.629-0.486-6.935c-0.049-0.765-0.102-1.531-0.147-2.294
		c-0.135-2.277-0.252-4.544-0.364-6.805c-1.762-35.748-1.269-69.31-15.281-93.695c-0.003-0.003-0.003-0.007-0.005-0.01v0.001
		c-3.073-5.347-6.854-10.249-11.504-14.638v-0.003c-0.448-0.417-0.865-0.854-1.327-1.267c0,0-28.511-13.415-49.701-0.382
		c0,0,0.044,0,0.09,0c-16.937,1.421-34.253,7.838-51.368,17.583c1.033-1.72,2.026-3.427,3.035-5.138
		c0.415-0.706,0.84-1.415,1.251-2.119c1.762-3.016,3.484-6.015,5.163-8.995c0.084-0.15,0.173-0.303,0.259-0.453
		c3.657-6.505,7.094-12.909,10.284-19.178c0.113-0.221,0.216-0.437,0.327-0.658c1.422-2.806,2.789-5.583,4.101-8.328
		c0.266-0.554,0.516-1.099,0.775-1.65c1.143-2.419,2.243-4.812,3.292-7.176c0.285-0.642,0.56-1.278,0.838-1.916
		c0.993-2.275,1.937-4.521,2.836-6.739c0.254-0.627,0.507-1.252,0.752-1.873c0.895-2.26,1.732-4.483,2.522-6.677
		c0.183-0.512,0.377-1.028,0.555-1.537c0.843-2.399,1.613-4.751,2.318-7.059c0.08-0.264,0.173-0.535,0.251-0.798
		c2.361-7.876,3.883-15.188,4.423-21.803c0.018-0.224,0.018-0.436,0.034-0.659c0.137-1.901,0.193-3.743,0.16-5.521
		c-0.007-0.406-0.039-0.795-0.054-1.195c-0.065-1.568-0.195-3.087-0.404-4.55c-0.029-0.203-0.025-0.432-0.057-0.633
		c-0.013,0.015-0.027,0.035-0.04,0.051c-0.145-0.925-0.248-1.882-0.455-2.761c0,0,1.165-32.631-50.114-39.624
		c-35.753-4.875-86.229-39.189-130.112-54.794c-0.001-0.001-0.003-0.002-0.004-0.003c-0.039-0.014-0.076-0.025-0.117-0.039
		c-2.206-0.784-4.396-1.514-6.567-2.195c-0.249-0.079-0.497-0.157-0.747-0.233c-2.067-0.639-4.114-1.227-6.142-1.762
		c-0.217-0.057-0.435-0.12-0.653-0.176c-4.445-1.148-8.793-2.036-13.016-2.594c-0.293-0.039-0.578-0.059-0.869-0.095
		c-1.7-0.208-3.379-0.361-5.036-0.459c-0.587-0.034-1.164-0.048-1.747-0.068c-1.365-0.047-2.712-0.051-4.044-0.014
		c-0.64,0.017-1.278,0.038-1.912,0.075c-1.312,0.078-2.602,0.216-3.879,0.383c-0.563,0.073-1.133,0.125-1.689,0.217
		c-1.794,0.296-3.559,0.662-5.275,1.153c-48.949,13.984-6.615,347.263,7.371,375.233c0.003,0.007,0.007,0.013,0.01,0.019
		c-7.162,0.077-14.926,1.829-22.24,6.953c0,0-24.19-15.015-44.883-4.858c-0.211-1.741-0.428-3.516-0.654-5.331
		c-0.011-0.086-0.023-0.178-0.033-0.265c-0.315-2.521-0.648-5.13-0.991-7.785c-0.065-0.507-0.13-1.007-0.196-1.518
		c-0.348-2.668-0.71-5.4-1.085-8.188c-0.068-0.506-0.138-1.017-0.207-1.527c-0.806-5.945-1.675-12.139-2.608-18.547
		c-0.058-0.4-0.116-0.795-0.174-1.198c-0.467-3.196-0.951-6.444-1.448-9.736c-0.056-0.369-0.113-0.739-0.169-1.109
		c-1.045-6.888-2.158-13.967-3.336-21.192c-0.036-0.225-0.073-0.449-0.109-0.676c-0.594-3.625-1.203-7.287-1.829-10.977
		c-0.035-0.208-0.071-0.417-0.106-0.625c-1.951-11.472-4.056-23.221-6.32-35.058c-0.01-0.053-0.021-0.106-0.031-0.159
		c-0.769-4.022-1.562-8.054-2.368-12.089c-0.184-0.928-0.371-1.853-0.558-2.781c-1.656-8.219-3.384-16.434-5.186-24.595
		c-0.15-0.685-0.303-1.368-0.456-2.052c-1.856-8.339-3.786-16.603-5.792-24.737c-0.127-0.512-0.253-1.021-0.38-1.532
		c-2.05-8.254-4.177-16.357-6.38-24.246c-0.1-0.364-0.203-0.724-0.306-1.087c-2.24-7.982-4.558-15.734-6.954-23.185
		c-0.075-0.235-0.151-0.467-0.227-0.702c-2.427-7.516-4.932-14.718-7.513-21.532c-0.06-0.155-0.119-0.307-0.177-0.462
		c-2.605-6.849-5.286-13.299-8.045-19.276c-0.044-0.093-0.086-0.182-0.128-0.274c-1.373-2.963-2.763-5.811-4.174-8.529
		c-0.011-0.023-0.023-0.047-0.035-0.07c-1.432-2.756-2.882-5.378-4.353-7.861c-0.034-0.058-0.069-0.113-0.103-0.171
		c-1.429-2.407-2.877-4.675-4.341-6.805c-0.035-0.051-0.069-0.112-0.104-0.163c0.001,0.004,0.002,0.009,0.004,0.013
		c-8.496-12.307-17.588-19.838-27.249-20.698c-58.975-5.244-72.134,40.207-96.608,62.934
		c-19.302,17.923-52.672,21.767-73.655,35.438c-0.013-0.001-0.026-0.003-0.04-0.004c-1.263,0.822-2.467,1.691-3.638,2.586
		c-0.299,0.229-0.59,0.466-0.884,0.702c-0.955,0.765-1.876,1.558-2.756,2.384c-0.578,0.542-1.106,1.124-1.648,1.695
		c-0.601,0.633-1.215,1.254-1.767,1.925c-1.099,1.331-2.124,2.725-3.021,4.222c-15.734,26.223,0,50.696,0,50.696
		c9.832,15.075,24.641,32.056,42.215,49.697c-0.626-0.282-1.227-0.524-1.851-0.804c-5.023-2.248-9.996-4.416-14.892-6.461
		c-0.79-0.331-1.565-0.639-2.351-0.963c-5.25-2.167-10.437-4.238-15.495-6.132c-0.276-0.103-0.548-0.202-0.823-0.305
		c-2.079-0.774-4.139-1.521-6.18-2.243c-0.465-0.165-0.927-0.327-1.39-0.488c-1.858-0.65-3.697-1.276-5.521-1.881
		c-0.522-0.174-1.045-0.349-1.565-0.518c-1.822-0.595-3.621-1.161-5.404-1.707c-0.449-0.138-0.904-0.282-1.352-0.417
		c-2.05-0.618-4.072-1.202-6.068-1.753c-0.15-0.042-0.305-0.088-0.454-0.129c-2.19-0.6-4.347-1.159-6.469-1.674
		c-0.203-0.049-0.398-0.089-0.599-0.138c-1.818-0.435-3.609-0.84-5.371-1.21c-0.615-0.129-1.215-0.239-1.822-0.36
		c-1.334-0.265-2.656-0.517-3.955-0.742c-0.706-0.122-1.4-0.23-2.095-0.34c-1.182-0.187-2.349-0.358-3.501-0.508
		c-0.706-0.092-1.407-0.18-2.1-0.259c-1.123-0.128-2.223-0.231-3.315-0.322c-0.664-0.055-1.332-0.116-1.983-0.158
		c-1.147-0.073-2.262-0.111-3.371-0.14c-0.541-0.014-1.096-0.044-1.627-0.047c-1.616-0.012-3.197,0.017-4.723,0.106
		c0,0-20.102,6.118-21.851,38.459c-1.095,20.244,9.614,51.25,5.244,69.328c-3.325,13.754-25.331,88.848-17.217,142.863
		c0.91,6.054,2.174,11.858,3.912,17.266c3.134,9.768,7.718,18.302,14.18,24.899c0.758,0.774,1.626,1.5,2.549,2.2
		c0.286,0.217,0.602,0.42,0.902,0.63c0.692,0.481,1.417,0.946,2.187,1.391c0.365,0.211,0.734,0.419,1.117,0.622
		c0.845,0.448,1.74,0.874,2.669,1.284c0.332,0.146,0.645,0.301,0.985,0.442c1.299,0.536,2.661,1.043,4.106,1.512
		c0.207,0.067,0.435,0.125,0.647,0.191c1.26,0.395,2.573,0.767,3.939,1.114c0.467,0.119,0.951,0.229,1.431,0.342
		c1.205,0.285,2.443,0.553,3.722,0.802c0.49,0.096,0.977,0.193,1.479,0.285c1.546,0.28,3.139,0.538,4.782,0.771
		c0.227,0.033,0.442,0.071,0.67,0.102c1.958,0.268,3.983,0.503,6.068,0.708c0.271,0.026,0.553,0.046,0.825,0.072
		c1.804,0.169,3.65,0.315,5.542,0.439c0.478,0.031,0.961,0.06,1.443,0.088c1.839,0.108,3.713,0.198,5.628,0.266
		c0.383,0.014,0.762,0.031,1.149,0.043c4.764,0.15,9.746,0.186,14.934,0.109c0.129-0.002,0.263-0.005,0.393-0.008
		c2.463-0.039,4.972-0.103,7.521-0.19c0.275-0.009,0.552-0.019,0.828-0.029c7.071-0.252,14.441-0.678,22.064-1.264
		c-0.001,0-0.001,0-0.002,0.001c0.012-0.001,0.025-0.003,0.039-0.004c0.886-0.068,1.795-0.15,2.686-0.222
		c0.361-0.026,0.72-0.052,1.087-0.082c-0.001-0.002-0.004-0.005-0.004-0.007c1.511-0.124,3.009-0.239,4.541-0.375
		c0.039,26.401,0.117,77.292,0.224,144.082c0.028,17.335,0.059,35.735,0.09,55.054c0.513,308.561,1.531,850.847,2.575,1008.834
		l-0.2-0.038c0.246,26.119,0.494,42.362,0.737,44.319c0,0,0.052,0.011,0.057,0.012c1.243,0.277,140.875,31.303,152.387,21.346
		c0.002-0.002,0.007-0.002,0.008-0.004c0,0-1.181-683.73-0.947-1049.03c0.013-19.865,0.03-38.795,0.051-56.617
		c0.124-101.679,0.396-167.464,0.896-167.397l0.027-0.005l162.484-28.861l301.724,44.456l-0.015,1.833l-0.111,14.699l-0.112,0.02
		l-0.646,44.897l-0.11,7.664l-0.501,34.792l0.704-0.126l-0.54,70.84l-0.429,56.317l-7.872,1031.814l-0.003,0.22L1375.193,2042
		V790.473L1054.043,739.159z"/>
	<path style="fill:#DD811C;" d="M1054.043,739.159l-54.575-8.721c-0.683,3.377-2.211,5.994-4.448,8.002c0,0.001,0,0.001,0,0.002
		c-0.015,0.015-0.037,0.026-0.054,0.04c-1.128,1.003-2.439,1.85-3.897,2.574c-0.101,0.05-0.192,0.108-0.293,0.157
		c-0.654,0.313-1.352,0.591-2.063,0.855c-0.229,0.085-0.458,0.172-0.693,0.253c-0.721,0.247-1.463,0.476-2.237,0.681
		c-0.213,0.057-0.435,0.108-0.652,0.162c-3.617,0.892-7.743,1.387-12.239,1.631c-0.225,0.013-0.451,0.026-0.678,0.038
		c-1.056,0.051-2.127,0.094-3.219,0.124c-0.188,0.005-0.378,0.008-0.566,0.013c-6.816,0.16-14.246-0.038-21.831-0.095
		c-0.434-0.003-0.867-0.007-1.304-0.009c-1.643-0.008-3.292-0.009-4.942,0.006c-24.995,0.228-50.085,7.298-61.829-8.543
		c-0.248,0.084-0.492,0.166-0.749,0.251c-0.225,0.075-0.477,0.155-0.708,0.232c-1.111,0.366-2.285,0.743-3.516,1.132
		c-0.404,0.127-0.811,0.255-1.226,0.385c-1.339,0.418-2.735,0.846-4.202,1.286c-0.201,0.06-0.383,0.118-0.587,0.178
		c-1.681,0.503-3.456,1.022-5.292,1.553c-0.438,0.126-0.892,0.256-1.339,0.384c-1.52,0.435-3.088,0.879-4.705,1.332
		c-0.451,0.126-0.896,0.251-1.354,0.378c-3.951,1.097-8.168,2.236-12.628,3.411l92.12,13.573l301.724,44.456l-0.015,1.833
		l-0.111,14.699l139.26-25.492v-5.445L1054.043,739.159z"/>
	<polygon style="fill:#F59E35;" points="1236.058,804.878 1236.043,806.712 1235.932,821.411 1375.193,795.918 1375.193,790.473 	
		"/>
	<polyline style="fill:#F59E35;" points="1226.932,2032.487 1226.422,2067.849 1375.193,2042 1375.193,2007.381 1375.193,2007.381 
		1375.193,883.715 1235.266,908.658 1234.727,979.498 1234.297,1035.815 1226.425,2067.629 1226.422,2067.849 1226.932,2032.487 	
		"/>
	<path style="fill:#F59E35;" d="M851.433,641.412c7.729-8.245,21.905-11.342,21.905-11.342c0.857-0.52,1.731-0.918,2.602-1.346
		c-0.212-1.761-0.42-3.497-0.649-5.333c-0.011-0.086-0.023-0.178-0.033-0.265c-0.315-2.521-0.648-5.13-0.991-7.785
		c-0.065-0.507-0.13-1.007-0.196-1.518c-0.348-2.668-0.71-5.4-1.085-8.188c-0.068-0.506-0.138-1.017-0.207-1.527
		c-0.806-5.945-1.675-12.139-2.608-18.547c-0.058-0.4-0.116-0.795-0.174-1.198c-0.467-3.196-0.951-6.444-1.448-9.736
		c-0.056-0.369-0.113-0.739-0.169-1.109c-1.045-6.888-2.158-13.967-3.336-21.192c-0.036-0.225-0.073-0.449-0.109-0.676
		c-0.594-3.625-1.203-7.287-1.829-10.977c-0.035-0.208-0.071-0.417-0.106-0.625c-1.951-11.472-4.056-23.221-6.32-35.058
		c-0.01-0.053-0.021-0.106-0.031-0.159c-13.744-71.841-33.195-146.833-57.581-182.148c12.739,49.461,41.84,169.761,27.069,182.685
		c-18.645,16.317-38.701-83.907-54.315-72.255c-15.611,11.653,72.961,162.916,47.322,143.226
		c-25.638-19.691-123.536-160.025-111.881-130.647c11.656,29.377,91.693,117.509,61,111.454
		c-27.264-5.377-70.78-150.545-166.743-156.78c-1.263,0.822-2.467,1.691-3.638,2.586c-0.299,0.229-0.59,0.466-0.884,0.702
		c-0.955,0.765-1.876,1.558-2.756,2.384c-0.578,0.542-1.106,1.124-1.648,1.695c-0.601,0.633-1.215,1.254-1.767,1.925
		c-1.099,1.331-2.124,2.725-3.021,4.222c-15.734,26.223,0,50.696,0,50.696c9.832,15.075,24.641,32.056,42.215,49.697
		c8.559,3.86,17.272,7.993,26.058,12.32c9.33,4.595,18.734,9.464,28.13,14.426c41.823,28.257,100.988,70.03,87.613,71.569
		c-20.271,2.331-172.672-66.598-155.908-55.443c16.762,11.155,209.946,90.989,172.791,89.532
		c-37.155-1.458-123.398-23.371-158.362-8.918c-34.962,14.453-42.846,32.924-14.43,30.682
		c28.415-2.243,200.853-3.412,192.719,11.158c-3.541,6.343-51.601,17.013-101.346,27.227c-26.244,3.378-47.203,6.961-50.572,10.262
		c-43.457,8.853-75.051,15.802-58.082,16.748c41.036,2.288,181.398-16.355,210.279-14.026c16.123,1.301,36.016,4.64,46.884,6.563
		c-23.997,0.07-149.49,38.458-244.778,62.191c0.117,0.176,0.27,0.359,0.379,0.534c26.634-2.202,56.039-6.24,85.485-11.187
		c-1.546,0.26-3.086,0.544-4.632,0.799l79.572,10.579l0.027-0.005l162.484-28.861l-92.12-13.573
		c-0.197,0.052-0.399,0.104-0.597,0.156c4.678-1.23,9.099-2.422,13.225-3.567c0.459-0.127,0.903-0.252,1.354-0.378
		c1.617-0.453,3.184-0.896,4.705-1.332c0.446-0.128,0.901-0.258,1.339-0.384c1.835-0.531,3.612-1.05,5.292-1.553
		c0.204-0.061,0.387-0.118,0.587-0.178c1.465-0.44,2.863-0.869,4.202-1.286c0.416-0.129,0.822-0.258,1.226-0.385
		c1.231-0.389,2.406-0.766,3.516-1.132c0.232-0.076,0.483-0.156,0.708-0.232c0.268-0.089,0.487-0.169,0.748-0.255
		c0.001,0.002,0.002,0.003,0.002,0.004c11.745,15.841,36.834,8.771,61.829,8.543c1.649-0.015,3.297-0.013,4.942-0.006
		c0.437,0.002,0.87,0.007,1.304,0.009c7.58,0.056,15.022,0.259,21.831,0.095c0.188-0.004,0.378-0.008,0.566-0.013
		c1.09-0.03,2.163-0.072,3.219-0.124c0.227-0.012,0.453-0.025,0.678-0.038c4.494-0.247,8.624-0.737,12.239-1.631
		c0.217-0.054,0.439-0.104,0.652-0.162c0.772-0.206,1.516-0.434,2.237-0.681c0.235-0.081,0.464-0.168,0.693-0.253
		c0.712-0.265,1.41-0.542,2.063-0.855c0.102-0.049,0.193-0.107,0.293-0.157c1.458-0.724,2.77-1.571,3.897-2.574
		c0.016-0.014,0.038-0.025,0.054-0.04c0-0.001,0-0.001,0-0.002c7.245-24.952-2.334-73.229-6.305-75.196
		c-4.472-2.216,4.663,28.592,2.333,37.917c-2.33,9.323-6.409,5.244-12.237,5.452c-5.827,0.209-5.829,5.617-9.768,9.698
		c-3.941,4.08-5.965-6.993-11.381-9.698c-5.417-2.704-7.404,8.533-12.065,17.274c-4.661,8.74-5.828-9.909-16.901-20.397
		c-11.07-10.489-18.063,2.332-23.891,7.542c-5.828,5.211-18.064,2.947-26.803,0c-8.741-2.947-15.152-28.52-22.727-42.59
		c-2.817-5.235-5.632-8.651-8.061-10.888C845.445,650.769,847.638,645.462,851.433,641.412"/>
	<path style="fill:#BE571A;" d="M740.815,570.893c-0.528-1.348-1.079-2.73-1.623-4.103c-0.477-1.201-0.944-2.389-1.434-3.607
		c-0.565-1.409-1.155-2.842-1.737-4.27c-0.505-1.234-1-2.459-1.517-3.706c-0.597-1.443-1.215-2.904-1.828-4.361
		c-0.522-1.238-1.036-2.469-1.57-3.716c-0.632-1.478-1.283-2.966-1.93-4.452c-0.548-1.26-1.091-2.515-1.651-3.779
		c-0.649-1.468-1.315-2.936-1.978-4.406c-0.578-1.28-1.151-2.558-1.738-3.837c-0.678-1.477-1.371-2.947-2.062-4.419
		c-0.595-1.265-1.184-2.53-1.788-3.79c-0.707-1.477-1.428-2.943-2.147-4.411c-0.611-1.247-1.218-2.493-1.837-3.73
		c-0.723-1.444-1.458-2.87-2.19-4.298c-0.637-1.24-1.271-2.48-1.915-3.707c-0.742-1.411-1.493-2.797-2.244-4.187
		c-0.652-1.206-1.302-2.413-1.962-3.601c-0.76-1.37-1.529-2.712-2.299-4.056c-0.667-1.166-1.333-2.333-2.008-3.477
		c-0.775-1.315-1.559-2.598-2.341-3.882c-0.681-1.118-1.363-2.235-2.051-3.326c-0.791-1.254-1.588-2.471-2.386-3.687
		c-0.693-1.056-1.384-2.112-2.082-3.137c-0.803-1.179-1.611-2.319-2.42-3.454c-0.706-0.992-1.411-1.98-2.122-2.937
		c-0.81-1.091-1.625-2.137-2.44-3.179c-0.719-0.918-1.435-1.831-2.158-2.709c-0.816-0.992-1.635-1.937-2.455-2.875
		c-0.729-0.834-1.457-1.66-2.188-2.45c-0.822-0.885-1.645-1.721-2.469-2.547c-0.738-0.738-1.473-1.466-2.211-2.154
		c-0.825-0.769-1.651-1.487-2.478-2.191c-0.743-0.633-1.486-1.253-2.231-1.831c-0.826-0.642-1.651-1.229-2.478-1.801
		c-0.749-0.518-1.498-1.02-2.249-1.478c-0.823-0.504-1.648-0.955-2.472-1.385c-0.755-0.393-1.508-0.764-2.262-1.092
		c-0.821-0.359-1.641-0.663-2.461-0.94c-0.419-0.143-0.839-0.36-1.259-0.481c0.004,0.035,0.008,0.075,0.01,0.11
		c-0.723-0.21-1.448-0.501-2.171-0.646c-50.696-10.144-62.934,13.456-62.934,13.456c5.821,8.574,34.535,39.83,63.029,70.232
		c13.874,6.833,27.926,14.158,41.851,21.718c14.837,8.055,29.517,16.364,43.673,24.615
		C741.34,572.247,741.083,571.579,740.815,570.893z"/>
	<path style="fill:#974217;" d="M739.192,566.79c-0.477-1.201-0.944-2.389-1.434-3.607c-0.565-1.409-1.155-2.842-1.737-4.27
		c-0.505-1.234-1-2.459-1.517-3.706c-0.597-1.443-1.215-2.904-1.828-4.361c-0.522-1.238-1.036-2.469-1.57-3.716
		c-0.632-1.478-1.283-2.966-1.93-4.452c-0.548-1.26-1.091-2.515-1.651-3.779c-0.649-1.468-1.315-2.936-1.978-4.406
		c-0.578-1.28-1.151-2.558-1.738-3.837c-0.678-1.477-1.371-2.947-2.062-4.419c-0.595-1.265-1.184-2.53-1.788-3.79
		c-0.707-1.477-1.428-2.943-2.147-4.411c-0.611-1.247-1.218-2.493-1.837-3.73c-0.723-1.444-1.458-2.87-2.19-4.298
		c-0.637-1.24-1.271-2.48-1.915-3.707c-0.742-1.411-1.493-2.797-2.244-4.187c-0.652-1.206-1.302-2.413-1.962-3.601
		c-0.76-1.37-1.529-2.712-2.299-4.056c-0.667-1.166-1.333-2.333-2.008-3.477c-0.775-1.315-1.559-2.598-2.341-3.882
		c-0.681-1.118-1.363-2.235-2.051-3.326c-0.791-1.254-1.588-2.471-2.386-3.687c-0.693-1.056-1.384-2.112-2.082-3.137
		c-0.803-1.179-1.611-2.319-2.42-3.454c-0.706-0.992-1.411-1.98-2.122-2.937c-0.81-1.091-1.625-2.137-2.44-3.179
		c-0.719-0.918-1.435-1.831-2.158-2.709c-0.816-0.992-1.635-1.937-2.455-2.875c-0.729-0.834-1.457-1.66-2.188-2.45
		c-0.822-0.885-1.645-1.721-2.469-2.547c-0.738-0.738-1.473-1.466-2.211-2.154c-0.825-0.769-1.651-1.487-2.478-2.191
		c-0.743-0.633-1.486-1.253-2.231-1.831c-0.826-0.642-1.651-1.229-2.478-1.801c-0.749-0.518-1.498-1.02-2.249-1.478
		c-0.823-0.504-1.648-0.955-2.472-1.385c-0.755-0.393-1.508-0.764-2.262-1.092c-0.821-0.359-1.641-0.663-2.461-0.94
		c-0.419-0.143-0.839-0.36-1.259-0.481c0.004,0.035,0.008,0.075,0.01,0.11c1.794,19.452,6.432,47.769,18.421,68.809
		c4.68,8.213,12.357,21.08,21.354,35.951c14.837,8.055,29.517,16.364,43.673,24.615c-0.263-0.68-0.521-1.348-0.789-2.034
		C740.287,569.544,739.736,568.162,739.192,566.79z"/>
	<path style="fill:#F59E35;" d="M1275.994,717.488c0.314-1.647,0.597-3.232,0.856-4.77c0.047-0.275,0.085-0.535,0.13-0.807
		c0.213-1.3,0.415-2.578,0.592-3.807c0.021-0.154,0.04-0.301,0.062-0.453c0.189-1.347,0.361-2.661,0.508-3.928
		c0.005-0.042,0.009-0.082,0.013-0.123c0.155-1.348,0.287-2.656,0.397-3.925c0-0.009,0.001-0.018,0.002-0.027
		c-44.352,20.923-213.083,8.901-237.861,2.679c-27.854-6.992-21.872-12.066-21.872-12.066c12.042,3.087,193.074,3.124,193.074,3.124
		s-10.489-6.21-44.288-13.786c-33.798-7.576-148.786-6.409-148.786-6.409s80.028-17.481,113.55-35.431
		c33.521-17.949,58.547-44.984,56.216-45.292c-2.33-0.306-152.673,59.745-152.673,59.745
		c68.76-30.302,177.148-138.684,190.508-178.311c2.87-8.509,2.964-15.348,1.327-20.861v-0.003c-0.448-0.417-0.865-0.854-1.327-1.267
		c0,0-28.511-13.415-49.701-0.382c0,0,0.044,0,0.09,0c-16.937,1.421-34.253,7.838-51.368,17.583
		c-0.381,0.635-0.786,1.278-1.172,1.915c28.098-46.538,47.974-90.377,43.832-116.572c-1.717,1.97-3.54,4.859-5.155,8.871
		c-4.66,11.582-15.15,39.623-29.136,64.098c-13.985,24.474-24.474,41.375-37.875,49.893c-13.401,8.518,41.37-76.696,43.686-93.598
		c2.315-16.9-19.212,30.303-43.686,67.809c-24.475,37.507-19.813,22.514-30.302,24.262c-10.489,1.748,1.747-16.901,0-29.957
		c-1.749-13.057-23.891,20.633-33.798,21.985c-9.906,1.352,0-31.07,2.33-65.449c2.33-34.38,2.333-42.54,0-51.864
		c-2.331-9.325-23.89,115.961-23.308,88.575c0.582-27.387,17.482-92.071,16.315-120.622c-0.898-22.039-19.281-44.634-39.792-61.132
		c-0.001-0.001-0.003-0.002-0.004-0.003c-0.039-0.014-0.076-0.025-0.117-0.039c-2.206-0.784-4.396-1.514-6.567-2.195
		c-0.249-0.079-0.497-0.157-0.747-0.233c-2.067-0.639-4.114-1.227-6.142-1.762c-0.217-0.057-0.435-0.12-0.653-0.176
		c-4.445-1.15-8.792-2.034-13.016-2.594c-0.293-0.039-0.578-0.059-0.869-0.095c-1.7-0.208-3.379-0.361-5.036-0.459
		c-0.587-0.034-1.164-0.048-1.747-0.068c-1.365-0.047-2.712-0.051-4.044-0.014c-0.64,0.017-1.278,0.038-1.912,0.075
		c-1.312,0.078-2.602,0.216-3.879,0.383c-0.563,0.073-1.133,0.125-1.689,0.217c-1.794,0.296-3.559,0.662-5.275,1.153
		c-48.949,13.984-6.615,347.263,7.371,375.233c0.003,0.007,0.007,0.013,0.01,0.019c2.736-0.029,5.374,0.179,7.871,0.557
		c3.992,0.605,7.575,1.596,10.555,2.637c5.239,1.831,8.575,3.76,8.575,3.76c6.447,2.158,9.967,6.256,11.852,11.531
		c16.834,21.495,19.744,53.456,18.803,73.281c-0.214,4.504-0.602,8.449-1.091,11.421c-0.038,0.225-0.123,0.407-0.166,0.624
		l54.575,8.721l40.608-7.213c53.764,6.292,116.381,10.781,152.266,3.661C1263.405,732.336,1274.256,726.615,1275.994,717.488z"/>
	<g>
		<path style="fill:#BE571A;" d="M1176.811,451.387c-16.937,1.421-34.253,7.838-51.368,17.583
			c-36.87,61.459-88.505,127.988-118.449,165.06c-0.026,0.034-0.054,0.066-0.082,0.101c-1.909,2.362-3.742,4.621-5.462,6.734
			c7.021-2.535,14.183-5.596,21.44-9.192c74.467-36.901,157.541-123.997,171.525-144.941
			C1217.447,452.235,1178.686,451.407,1176.811,451.387z"/>
		<path style="fill:#BE571A;" d="M1017.267,295.663c-1.007-2.844-2.178-5.533-3.485-8.076c-0.748-1.457-1.631-2.76-2.468-4.118
			c-0.602-0.981-1.137-2.043-1.781-2.974c-0.005,0.001-0.009,0.003-0.013,0.003c-22.232-32.013-68.655-33.214-81.773,0.523
			c-12.291,31.611-14.581,201.52,16.367,322.107c0,0.042,0,0.09,0.002,0.132c0.319,1.241,0.664,2.442,0.989,3.672
			c0.544,2.058,1.089,4.116,1.654,6.142c0.571,2.053,1.167,4.066,1.76,6.085c0.538,1.834,1.069,3.682,1.626,5.489
			c0.262,0.85,0.529,1.691,0.795,2.535c3.992,0.605,7.575,1.596,10.555,2.637C976.301,564.112,1028.424,327.153,1017.267,295.663z"
			/>
		<path style="fill:#BE571A;" d="M841.617,747.006c-0.471,0.123-0.945,0.247-1.421,0.371c-2.153,0.563-4.352,1.131-6.606,1.707
			c-0.233,0.06-0.457,0.117-0.692,0.177c-2.595,0.661-5.255,1.331-7.976,2.008c-0.182,0.045-0.369,0.091-0.551,0.136
			c-2.511,0.623-5.078,1.252-7.688,1.885c-0.377,0.092-0.752,0.182-1.131,0.274c-5.719,1.383-11.655,2.785-17.781,4.195
			c-0.176,0.04-0.354,0.081-0.529,0.122c-3.053,0.702-6.147,1.405-9.286,2.109c-0.052,0.012-0.103,0.023-0.156,0.035
			c-6.475,1.452-13.125,2.903-19.907,4.344l-0.462,0.098c-10.25,2.174-20.795,4.32-31.508,6.394
			c-0.006,0.002-0.011,0.002-0.017,0.003c-14.374,2.783-29.032,5.435-43.655,7.845l79.572,10.579l0.027-0.005l162.484-28.861
			l-92.12-13.573C842.016,746.901,841.814,746.953,841.617,747.006z"/>
		<path style="fill:#BE571A;" d="M999.634,729.814c-0.038,0.225-0.123,0.407-0.166,0.624l54.575,8.721l40.608-7.213
			c-43.193-5.054-80.642-11.264-93.926-13.553C1000.511,722.897,1000.123,726.842,999.634,729.814z"/>
	</g>
	<path style="fill:#9A4419;" d="M1017.267,295.663c-1.007-2.844-2.178-5.533-3.485-8.076c-0.748-1.457-1.631-2.76-2.468-4.118
		c-0.602-0.981-1.137-2.043-1.781-2.974c-0.005,0.001-0.009,0.003-0.013,0.003c-9.876,1.868-22.807,8.945-34.206,30.242
		c-19.307,36.074-32.41,223.223-31.2,292.388c0,0.042,0,0.09,0.002,0.132c0.319,1.241,0.664,2.442,0.989,3.672
		c0.544,2.058,1.089,4.116,1.654,6.142c0.571,2.053,1.167,4.066,1.76,6.085c0.538,1.834,1.069,3.682,1.626,5.489
		c0.262,0.85,0.529,1.691,0.795,2.535c3.992,0.605,7.575,1.596,10.555,2.637C976.301,564.112,1028.424,327.153,1017.267,295.663z"/>
	<path style="fill:#CE7C24;" d="M850.761,665.857c-0.433-0.881-0.864-1.771-1.314-2.613c0,0-163.503-32.945-191.302-25.484
		c-27.801,7.46-55.77,21.568-31.296,19.759C648.396,655.925,806.749,656.356,850.761,665.857z"/>
	<path style="fill:#CE7C24;" d="M658.145,719.731c22.335,9.621,150.979-8.624,178.48-13.118c9.84-1.607,18.854-4.86,26.364-7.982
		c-1.653-5.088-3.309-10.18-5.036-15.108c-7.625,5.012-21.154,8.01-29.483,9.863c-8.227,1.829-73.419,7.293-121.183,13.44
		c-26.244,3.378-47.203,6.961-50.572,10.262C655.792,717.993,656.166,718.878,658.145,719.731z"/>
	<path style="fill:#F59E35;" d="M771.713,2025.876l-152.88-29.178l-0.2-0.038c0.246,26.119,0.494,42.362,0.737,44.319
		c0,0,0.052,0.011,0.057,0.012c1.243,0.276,140.875,31.302,152.387,21.345c0.002-0.002,0.007-0.002,0.008-0.004
		C771.823,2062.331,771.782,2048.92,771.713,2025.876z"/>
	<path style="fill:#FAD169;" d="M1144.3,592.467c27.971-6.684,78.882-24.163,84.893-12.51c6.011,11.653-65.078,48.01-44.101,57.802
		c20.978,9.792,40.052,12.042,54.405,25.484c14.353,13.443,0.317,6.481,19.882,16.356c7.257,3.659,13.816,5.162,19.381,5.401l0,0
		l-0.002-0.02c-0.087-1.244-0.209-2.453-0.35-3.644c-0.018-0.156-0.038-0.314-0.057-0.469c-0.304-2.42-0.712-4.751-1.213-7.057
		c-0.027-0.123-0.054-0.246-0.081-0.369c-1.648-7.436-4.231-14.694-7.189-23.971c-0.312-0.979-0.627-1.978-0.947-3.004
		c-0.153-0.491-0.305-0.986-0.46-1.489c-0.341-1.111-0.686-2.255-1.033-3.428c-0.111-0.373-0.22-0.732-0.33-1.112
		c-0.444-1.516-0.892-3.096-1.343-4.728c-0.115-0.418-0.23-0.851-0.346-1.277c-0.371-1.365-0.742-2.776-1.116-4.229
		c-0.119-0.461-0.237-0.913-0.354-1.385c-0.465-1.843-0.929-3.751-1.392-5.746c-0.079-0.344-0.158-0.709-0.238-1.058
		c-0.394-1.721-0.787-3.508-1.178-5.349c-0.122-0.579-0.245-1.158-0.368-1.75c-0.464-2.244-0.926-4.548-1.383-6.98
		c-0.552-2.947-1.025-5.9-1.461-8.854c-0.074-0.499-0.151-0.997-0.223-1.495c-0.396-2.792-0.743-5.584-1.053-8.374
		c-0.069-0.617-0.135-1.233-0.199-1.849c-0.29-2.752-0.552-5.502-0.777-8.245c-0.046-0.568-0.085-1.133-0.129-1.701
		c-0.18-2.317-0.341-4.629-0.486-6.935c-0.049-0.765-0.102-1.531-0.147-2.294c-0.135-2.277-0.252-4.544-0.364-6.805
		c-1.77-35.739-1.272-69.311-15.281-93.695c-0.003-0.003-0.003-0.007-0.005-0.01v0.001c-0.48,5.012-1.743,10.624-4.19,16.886
		C1222.385,517.025,1116.329,599.154,1144.3,592.467z"/>
	<polygon style="fill:#FFDC83;" points="1235.474,845.529 1235.174,866.328 1235.064,873.992 1235.064,873.992 1375.193,852.651 
		1375.193,819.218 	"/>
	<path style="fill:#FAD169;" d="M970.069,633.58c-19.149-6.412-47.13-2.697-57.362,4.18c0,0-47.507-16.116-53.386,8.918
		c-5.876,25.034,15.182,37.769,18.68,46.708c3.496,8.939,12.504,17.679,21.11,10.688c8.608-6.993,14.395-12.633,24.613-10.688
		c10.217,1.946,24.442-4.698,33.937-3.124c9.494,1.574,25.236,16.495,25.236-5.261c0-14.432,2.741-29.493-0.975-39.889
		C980.036,639.836,976.516,635.738,970.069,633.58z"/>
	<path style="fill:#FAD169;" d="M510.015,777.495c0.758,0.774,1.626,1.5,2.549,2.2c0.286,0.217,0.602,0.42,0.902,0.63
		c0.692,0.481,1.417,0.946,2.187,1.391c0.365,0.211,0.734,0.419,1.117,0.622c0.845,0.448,1.74,0.874,2.669,1.284
		c0.332,0.146,0.645,0.301,0.985,0.442c1.299,0.536,2.661,1.043,4.106,1.512c0.207,0.067,0.435,0.125,0.647,0.191
		c1.26,0.395,2.573,0.767,3.939,1.114c0.467,0.119,0.951,0.229,1.431,0.342c1.205,0.285,2.443,0.553,3.722,0.802
		c0.49,0.096,0.977,0.193,1.479,0.285c1.546,0.28,3.139,0.538,4.782,0.771c0.227,0.033,0.442,0.071,0.67,0.102
		c1.958,0.268,3.983,0.503,6.068,0.708c0.271,0.026,0.553,0.046,0.825,0.072c1.804,0.169,3.65,0.315,5.542,0.439
		c0.478,0.031,0.961,0.06,1.443,0.088c1.839,0.108,3.713,0.198,5.628,0.266c0.383,0.014,0.762,0.031,1.149,0.043
		c4.764,0.15,9.746,0.186,14.934,0.109c0.129-0.002,0.263-0.005,0.393-0.008c2.463-0.039,4.972-0.103,7.521-0.19
		c0.275-0.009,0.552-0.019,0.828-0.029c7.094-0.254,14.52-0.701,22.17-1.291c0.69-0.052,1.372-0.101,2.067-0.156
		c0.549-0.044,1.085-0.078,1.636-0.124c-0.002-0.004-0.007-0.009-0.009-0.013c-0.109-0.175-0.262-0.358-0.379-0.534
		c-9.189-13.89-39.506-31.755-50.6-47.227c-16.317-22.756-2.33-84.46,20.397-116.204c22.725-31.743-11.072-52.168,0-84.365
		c6.636-19.305,33.105-23.993,53.245-24.652c-13.31-6.099-26.283-11.582-38.627-16.203c-0.276-0.103-0.548-0.202-0.823-0.305
		c-2.079-0.774-4.139-1.521-6.18-2.243c-0.465-0.165-0.927-0.327-1.39-0.488c-1.858-0.65-3.697-1.276-5.521-1.881
		c-0.522-0.174-1.045-0.349-1.565-0.518c-1.822-0.595-3.621-1.161-5.404-1.707c-0.449-0.138-0.904-0.282-1.352-0.417
		c-2.05-0.618-4.072-1.202-6.068-1.753c-0.15-0.042-0.305-0.088-0.454-0.129c-2.19-0.6-4.347-1.159-6.469-1.674
		c-0.203-0.049-0.398-0.089-0.599-0.138c-1.818-0.435-3.609-0.84-5.371-1.21c-0.615-0.129-1.215-0.239-1.822-0.36
		c-1.334-0.265-2.656-0.517-3.955-0.742c-0.706-0.122-1.4-0.23-2.095-0.34c-1.182-0.187-2.349-0.358-3.501-0.508
		c-0.706-0.092-1.407-0.18-2.1-0.259c-1.123-0.128-2.223-0.231-3.315-0.322c-0.664-0.055-1.332-0.116-1.983-0.158
		c-1.147-0.073-2.262-0.111-3.371-0.14c-0.541-0.014-1.096-0.044-1.627-0.047c-1.616-0.012-3.197,0.017-4.723,0.106
		c0,0-20.102,6.118-21.851,38.459c-1.095,20.244,9.614,51.25,5.244,69.328c-3.325,13.754-25.331,88.848-17.217,142.863
		c0.91,6.054,2.174,11.858,3.912,17.266C498.969,762.365,503.553,770.899,510.015,777.495z"/>
	<g>
		<path style="fill:#439B39;" d="M616.168,932.809l-161.274-24.881v53.389l161.364,26.547
			C616.227,968.544,616.196,950.144,616.168,932.809z"/>
		<path style="fill:#439B39;" d="M770.926,956.685c-0.021,17.821-0.038,36.751-0.051,56.617l270.27,44.464v-59.392L770.926,956.685z
			"/>
		<path style="fill:#67B65E;" d="M771.823,789.288c-0.501-0.068-0.772,65.717-0.896,167.397l270.219,41.688V825.077L771.85,789.283
			L771.823,789.288z"/>
		<path style="fill:#67B65E;" d="M615.944,788.728c-2.801,0.25-5.568,0.475-8.309,0.686c-0.013,0.001-0.026,0.003-0.039,0.004
			c0.001-0.001,0.001-0.001,0.002-0.001c-7.624,0.586-14.994,1.012-22.064,1.264c-0.276,0.01-0.553,0.019-0.828,0.029
			c-2.549,0.087-5.058,0.152-7.521,0.19c-0.13,0.002-0.264,0.006-0.393,0.008c-5.186,0.076-10.17,0.042-14.934-0.109
			c-0.387-0.012-0.765-0.029-1.149-0.043c-1.916-0.069-3.791-0.157-5.628-0.266c-0.482-0.028-0.965-0.056-1.443-0.088
			c-1.891-0.124-3.74-0.27-5.542-0.439c-0.272-0.025-0.554-0.045-0.825-0.072c-2.085-0.206-4.111-0.44-6.068-0.708
			c-0.228-0.031-0.443-0.069-0.67-0.102c-1.643-0.233-3.236-0.491-4.782-0.771c-0.502-0.092-0.99-0.189-1.479-0.285
			c-1.279-0.25-2.519-0.517-3.722-0.802c-0.48-0.113-0.964-0.223-1.431-0.342c-1.365-0.348-2.678-0.719-3.939-1.114
			c-0.211-0.066-0.439-0.124-0.647-0.191c-1.445-0.469-2.808-0.976-4.106-1.512c-0.34-0.141-0.654-0.296-0.985-0.442
			c-0.93-0.41-1.824-0.836-2.669-1.284c-0.383-0.203-0.752-0.411-1.117-0.622c-0.77-0.445-1.495-0.909-2.187-1.391
			c-0.3-0.209-0.616-0.413-0.902-0.63c-0.924-0.7-1.791-1.426-2.549-2.2c-6.462-6.597-11.046-15.13-14.18-24.899l-58.128-7.726
			v160.406l17.187,2.651l161.274,24.881C616.06,866.02,615.982,815.128,615.944,788.728z"/>
		<path style="fill:#46A03C;" d="M491.924,735.331l-54.217,9.54l58.128,7.726C494.098,747.189,492.833,741.385,491.924,735.331z"/>
		<polygon style="fill:#46A03C;" points="1041.146,825.077 1236.043,806.712 1236.058,804.878 934.334,760.422 771.85,789.283 		"/>
		<path style="fill:#46A03C;" d="M1094.651,731.946l-40.608,7.213l321.15,51.315v3.126l102.421-9.651l-230.697-48.341
			C1211.032,742.727,1148.414,738.237,1094.651,731.946z"/>
		<path style="fill:#6DB85E;" d="M802.752,1038.16c-9.325,20.534-18.648,905.7-9.325,916.469
			c9.325,10.769,30.302-2.325,30.302-2.325l195.09-680.446V1077.49C1018.82,1077.49,812.075,1017.626,802.752,1038.16z"/>
		<polygon style="fill:#6DB85E;" points="467.107,990.39 467.107,1952.304 504.401,1952.304 593.965,1438.622 593.051,1012.075 		
			"/>
	</g>
	<polygon style="fill:#DD811C;" points="1226.932,2032.487 1226.422,2067.849 1375.193,2042 1375.193,2007.381 	"/>
</g>
</svg>
