<?xml version="1.0" encoding="utf-8"?>
<!-- Generator: Adobe Illustrator 27.5.0, SVG Export Plug-In . SVG Version: 6.00 Build 0)  -->
<svg version="1.1" id="Layer_1" xmlns="http://www.w3.org/2000/svg" xmlns:xlink="http://www.w3.org/1999/xlink" x="0px" y="0px"
	 viewBox="0 0 900 900" style="enable-background:new 0 0 900 900;" xml:space="preserve">
<g>
	<path style="fill:#68352D;" d="M501.151,762.713c-0.519,5.229-4.192,6.667-2.55,10.033c1.642,3.366,4.989,2.328,7.789,1.81
		c2.801-0.519,31.867-6.332,35.091-8.04c3.224-1.708,8.119-3.245,9.125-6.095c1.006-2.85-1.863-7.132-7.05-8.818
		c-5.187-1.686-3.89-4.15-16.599-1.426c-12.709,2.723-18.025,3.501-18.674,5.446C507.635,757.568,501.151,762.713,501.151,762.713z"
		/>
	<g>
		<path style="fill:#E28166;" d="M595.64,275.667c-1.935,4.893-6.265,7.535-4.933,12.46c1.332,4.924,1.99,11.684,1.102,12.022
			c-0.888,0.338-34.909-1.526-34.742-2.23c0.166-0.704,0.737-5.298,1.951-11.495c1.214-6.196-2.156-12.72,1.578-15.897
			c3.734-3.176,3.966-6.287,7.796-8.452c3.83-2.165,3.007-2.63,7.082-2.897s13.708,5.939,15.4,6.99
			C592.566,267.218,595.64,275.667,595.64,275.667z"/>
		<path style="fill:#EF9373;" d="M569.578,266.012c4.909-5.676,14.286-18.892,24.743-13.84c10.456,5.052,12.322,15.674,4.166,28.062
			c-7.114,10.806-14.109,12.317-17.035,6.189c-2.208-4.624,4.117-13.817,4.423-17.746
			C586.181,264.748,569.578,266.012,569.578,266.012z"/>
		<path style="fill:#EF9373;" d="M557.067,266.571c2.998-6.995,7.994-22.649,19.651-20.984
			c11.658,1.665,17.986,11.032,15.322,25.834c-2.665,14.801-9.884,17.887-15.655,13.791c-4.237-3.007-1.838-17.188-2.751-21.079
			C572.721,260.242,557.067,266.571,557.067,266.571z"/>
		<path style="fill:#84362C;" d="M579.757,272.587c-1.111,5.18-6.202,8.279-11.313,6.887l-0.321-0.087
			c-5.111-1.392-7.519-6.486-5.351-11.319l13.829-30.829c2.168-4.833,5.776-8.235,8.019-7.559c2.242,0.676,3.168,5.467,2.057,10.646
			L579.757,272.587z"/>
		<path style="fill:#FFB287;" d="M549.073,294.7c-2.64-3.608-6.225-17.15-1.538-27.23c1.998-4.297,6.354-7.266,11.53-9.71
			c17.32-8.176,22.828-3.365,19.611,5.115c-1.266,3.339-5.641,5.961-9.511,8.546c-3.299,2.203,3.889,11.387,2.64,23.279
			C570.669,305.515,549.073,294.7,549.073,294.7z"/>
		<g>
			<path style="fill:#CF2F2F;" d="M543.985,303.325c-7.371,48.821-50.42,63.438-65.112,68.05
				c-23.056,7.236-40.619,2.349-44.491-1.741l-42.21,39.964c11.497,12.143,28.233,19.962,48.4,22.612
				c4.989,0.655,10.092,0.981,15.267,0.981c13.277,0,20.04,13.76,33.462,9.547c23.706-7.44,51.897-29.527,68.327-47.525
				c19.143-20.97,31.172-54.249,35.753-84.589L543.985,303.325z"/>
			<path style="fill:#EF4136;" d="M449.848,384.588c4.309,3.626,22.311,6.498,44.402-3.297c14.078-6.241,55.199-25.629,57.007-74.97
				l16.812,0.563l-24.084-3.559c-4.88,32.322-21.556,45.992-38.488,56.47c-12.721,7.872-24.058-6.115-40.223-10.854
				c-23.189-6.799-27.022,24.783-30.893,20.693l-42.211,39.964c6.284,6.637,14.143,11.971,23.262,15.887L449.848,384.588z"/>
		</g>
		<path style="fill:#E5C0BA;" d="M599.903,305.92l-4.766,18.056c-0.02,0.07-0.04,0.14-0.07,0.21
			c-1.259,4.316-5.786,6.984-10.192,5.965l-43.207-10.052c-4.466-1.039-7.514-5.596-6.775-10.122l2.099-12.79
			c0.749-4.527,2.898-7.794,7.444-7.165l49.332,6.675C598.315,297.327,601.072,301.484,599.903,305.92z"/>
		<g>
			<g>
				<path style="fill:#CF2F2F;" d="M586.865,226.658c-8.768-2.801-38.792-17.678-54.279,8.176l5.481,16.017
					c0,0,16.21-33.205,45.459-19.412C612.774,245.233,586.865,226.658,586.865,226.658z"/>
				<path style="fill:#EF4136;" d="M586.76,232.218c-8.795,9.926-26.608,32.531-49.363,22.957l-4.81-20.506
					c0,0,30.757,14.049,51.712-8.251C605.254,204.117,586.76,232.218,586.76,232.218z"/>
				<path style="fill:#CF2F2F;" d="M591.148,228.98l-2.042,5.482c27.612,16.915,9.533,49.111,9.533,49.111l16.152-4.335
					C627.266,251.757,598.336,234.795,591.148,228.98z"/>
				<path style="fill:#EF4136;" d="M586.529,232.266c-3.199,12.949-11.719,40.572,8.816,54.378l19.445-7.407
					c0,0-28.664-18.041-22.147-48.139C599.16,201,586.529,232.266,586.529,232.266z"/>
			</g>
			<path style="fill:#E27829;" d="M579.897,227.681c0-3.54,2.869-6.409,6.409-6.409s6.409,2.869,6.409,6.409
				s-2.87,6.409-6.409,6.409S579.897,231.22,579.897,227.681z"/>
			<g>
				<g>
					<g>
						<path style="fill:#FFA233;" d="M623.562,185.008c0.307-0.114,0.63-0.197,0.967-0.245l19.885-2.875
							c2.552-0.369,4.919,1.401,5.287,3.953c0.368,2.55-1.398,4.918-3.951,5.287l-19.887,2.875
							c-2.551,0.369-4.917-1.401-5.287-3.953C620.257,187.835,621.547,185.758,623.562,185.008z"/>
						<path style="fill:#FFC533;" d="M635.789,185.059c0.114-0.036,0.234-0.062,0.359-0.077l7.381-0.87
							c0.947-0.112,1.834,0.472,1.981,1.305c0.146,0.832-0.501,1.597-1.449,1.708l-7.382,0.87c-0.947,0.112-1.833-0.472-1.981-1.305
							C634.571,185.968,635.043,185.296,635.789,185.059z"/>
					</g>
				</g>
				<path style="fill:#FFA233;" d="M595.876,159.284c-2.196,4.594-1.901,8.319-2.483,12.921c-0.329,2.592-0.929,5.473-2.424,8.96
					l0.007,0.007l-0.005-0.002c-2.959,6.906-6.154,9.108-12.561,20.931c-6.407,11.817,2.851,23.532,6.898,27.578
					c4.045,4.045,15.761,13.303,27.58,6.899c11.822-6.409,14.023-9.604,20.93-12.562l-0.002-0.004l0.005,0.005
					c3.48-1.487,6.368-2.094,8.961-2.424c4.602-0.583,8.327-0.287,12.921-2.483c2.643-1.258,5.583-3.353,9.138-6.908l-62.056-62.056
					C599.229,153.702,597.134,156.641,595.876,159.284z"/>
				<g>
					<path style="fill:#FFD16C;" d="M601.796,165.204c-2.433,4.357-2.536,7.684-3.516,11.889c-0.553,2.369-1.378,5.023-3.071,8.314
						l0.005,0.005l-0.005-0.002c-3.35,6.516-6.446,8.816-13.389,20.103c-6.943,11.281,0.24,20.921,3.486,24.166l0,0
						c-1.541-1.54-4.305-6.761,3.777-16.903c8.084-10.146,10.971-12.655,15.152-18.339h0.003l-0.002-0.003
						c2.112-2.871,3.418-5.045,4.448-6.937c1.827-3.358,2.776-5.838,5.715-9.689c1.687-2.214,4.043-4.892,7.599-8.447
						l-13.074-13.074C605.369,159.843,603.191,162.698,601.796,165.204z"/>
				</g>
				<path style="fill:#FFC533;" d="M661.907,214.923c0.933-0.799,2.611-2.399,3.639-3.427l-62.056-62.056
					c-1.028,1.028-2.628,2.707-3.427,3.639L661.907,214.923z"/>
			</g>
		</g>
		<g>
			<g>
				<path style="fill:#FFA233;" d="M626.934,125.216c-1.33,0-2.408-1.078-2.408-2.408V104.05c0-1.33,1.078-2.408,2.408-2.408
					c1.33,0,2.408,1.078,2.408,2.408v18.758C629.342,124.138,628.264,125.216,626.934,125.216z"/>
			</g>
			<g>
				<path style="fill:#FFA233;" d="M626.934,120.594c-1.33,0-2.408-1.078-2.408-2.408V104.05c0-1.33,1.078-2.408,2.408-2.408
					c1.33,0,2.408,1.078,2.408,2.408v14.135C629.342,119.516,628.264,120.594,626.934,120.594z"/>
			</g>
			<g>
				<path style="fill:#FFA233;" d="M579.871,144.953c-0.613,0-1.225-0.232-1.695-0.697l-13.841-13.716
					c-0.945-0.936-0.952-2.461-0.016-3.405c0.937-0.945,2.461-0.951,3.405-0.016l13.841,13.716c0.945,0.936,0.952,2.461,0.016,3.405
					C581.11,144.715,580.49,144.953,579.871,144.953z"/>
			</g>
			<g>
				<path style="fill:#FFA233;" d="M558.109,191.224c-0.025,0-0.051-0.001-0.076-0.001l-15.503-0.482
					c-1.329-0.041-2.373-1.152-2.332-2.482c0.041-1.329,1.146-2.367,2.482-2.332l15.503,0.482c1.329,0.041,2.373,1.152,2.332,2.482
					C560.474,190.194,559.404,191.224,558.109,191.224z"/>
			</g>
			<g>
				<path style="fill:#FFA233;" d="M633.1,263.983c-1.33,0-2.408-1.078-2.408-2.408v-8.231c0-1.33,1.078-2.408,2.408-2.408
					c1.33,0,2.408,1.078,2.408,2.408v8.231C635.508,262.905,634.429,263.983,633.1,263.983z"/>
			</g>
			<g>
				<path style="fill:#FFA233;" d="M694.028,249.737c-0.613,0-1.226-0.232-1.695-0.698l-13.81-13.688
					c-0.944-0.936-0.951-2.461-0.015-3.405c0.937-0.945,2.461-0.951,3.405-0.015l13.81,13.688c0.944,0.936,0.951,2.461,0.015,3.405
					C695.267,249.499,694.647,249.737,694.028,249.737z"/>
			</g>
			<g>
				<path style="fill:#FFA233;" d="M717.463,190.247c-0.025,0-0.051-0.001-0.076-0.001l-19.545-0.608
					c-1.329-0.041-2.373-1.152-2.332-2.481c0.041-1.329,1.158-2.376,2.482-2.332l19.546,0.608c1.329,0.041,2.373,1.152,2.332,2.481
					C719.828,189.218,718.758,190.247,717.463,190.247z"/>
			</g>
			<g>
				<path style="fill:#FFA233;" d="M675.845,143.752c-0.646,0-1.29-0.258-1.764-0.769c-0.905-0.974-0.849-2.498,0.125-3.403
					l13.818-12.841c0.974-0.906,2.498-0.85,3.403,0.125c0.905,0.974,0.849,2.498-0.125,3.403l-13.818,12.841
					C677.02,143.539,676.431,143.752,675.845,143.752z"/>
			</g>
			<g>
				<g>
					<path style="fill:#FFA233;" d="M653.446,129.479c-0.324,0-0.652-0.065-0.967-0.204c-1.218-0.535-1.771-1.955-1.236-3.173
						l3.924-8.936c0.534-1.218,1.955-1.771,3.173-1.236c1.218,0.535,1.771,1.955,1.236,3.173l-3.924,8.936
						C655.255,128.941,654.372,129.479,653.446,129.479z"/>
				</g>
				<g>
					<path style="fill:#FFA233;" d="M602.42,128.623c-0.96,0-1.867-0.577-2.24-1.524l-3.914-9.911
						c-0.489-1.237,0.118-2.636,1.355-3.124c1.237-0.489,2.635,0.118,3.124,1.355l3.914,9.911c0.489,1.237-0.118,2.636-1.355,3.124
						C603.014,128.569,602.714,128.623,602.42,128.623z"/>
				</g>
				<g>
					<path style="fill:#FFA233;" d="M567.528,163.973c-0.347,0-0.7-0.075-1.035-0.235l-9.812-4.678
						c-1.2-0.573-1.709-2.01-1.137-3.21c0.572-1.2,2.009-1.71,3.21-1.137l9.812,4.678c1.2,0.572,1.709,2.01,1.137,3.21
						C569.29,163.467,568.427,163.973,567.528,163.973z"/>
				</g>
				<g>
					<path style="fill:#FFA233;" d="M664.804,270.467c-0.96,0-1.867-0.577-2.24-1.524l-5.491-13.91
						c-0.488-1.237,0.119-2.635,1.356-3.124c1.238-0.488,2.636,0.119,3.124,1.356l5.491,13.91c0.488,1.237-0.119,2.635-1.356,3.124
						C665.398,270.413,665.098,270.467,664.804,270.467z"/>
				</g>
				<g>
					<path style="fill:#FFA233;" d="M701.959,221.504c-0.347,0-0.7-0.075-1.035-0.235l-9.43-4.497c-1.2-0.572-1.709-2.01-1.137-3.21
						c0.573-1.2,2.01-1.709,3.21-1.137l9.43,4.497c1.201,0.572,1.709,2.01,1.137,3.21
						C703.721,220.997,702.858,221.504,701.959,221.504z"/>
				</g>
				<g>
					<path style="fill:#FFA233;" d="M690.774,166.118c-0.996,0-1.928-0.623-2.274-1.617c-0.437-1.256,0.227-2.628,1.483-3.066
						l10.921-3.801c1.257-0.437,2.628,0.227,3.066,1.483c0.437,1.256-0.227,2.628-1.483,3.066l-10.921,3.801
						C691.304,166.074,691.037,166.118,690.774,166.118z"/>
				</g>
			</g>
		</g>
		<path style="fill:#FCF1F0;" d="M599.903,305.92l-4.766,18.056c-0.02,0.07-0.04,0.14-0.07,0.21
			c-2.728-5.116-8.464-9.693-18.856-11.031c-21.064-2.708-41.318-3.178-39.22-15.968c0.749-4.527,2.898-7.794,7.444-7.165
			l49.332,6.675C598.315,297.327,601.072,301.484,599.903,305.92z"/>
	</g>
	<path style="fill:#E1BEBC;" d="M239.883,204.913c0,0.944-0.031,1.888-0.104,2.822c-1.349,16.911-15.468,30.252-32.742,30.345
		c-18.238,0.094-33.084-14.607-33.167-32.835c-0.042-9.493,3.932-18.072,10.322-24.12c5.872-5.571,13.798-9.005,22.533-9.046
		C224.954,171.984,239.799,186.685,239.883,204.913z"/>
	<g>
		<path style="fill:#E07436;" d="M350.851,310.431c-1.472,0.533-0.38,1.402,3.897,2.092c4.277,0.69,18.609,3.002,18.609,3.002
			s-10.154-3.871-15.344-4.631C352.823,310.133,350.851,310.431,350.851,310.431z"/>
		<g>
			<path style="fill:#FFBB22;" d="M413.089,312.173c0,0-0.004,9.536-1.458,17.539c-1.454,8.002-21.893-0.714-23.116-1.493
				c-1.223-0.778-6.198-7.866-5.514-9.087c0.684-1.221,1.101-1.467,3.096-1.422C388.092,317.755,413.089,312.173,413.089,312.173z"
				/>
			<path style="fill:#E86B18;" d="M387.13,319.471c8.771-4.949,22.334,1.185,25.96-7.299c0,0-1.423-1.854-6.444-1.485
				c-3.239,0.238-7.961,2.49-14.78,5.672C376.686,323.443,387.13,319.471,387.13,319.471z"/>
			<path style="fill:#F99C15;" d="M345.241,298.446c0,0-2.87,8.953-3.902,16.994c-1.033,8.04,20.983,7.286,22.378,7
				c1.395-0.286,7.279-2.081,6.998-3.476c-0.281-1.395-4.74-7.394-6.646-8.076C362.163,310.204,345.241,298.446,345.241,298.446z"/>
			<path style="fill:#E86B18;" d="M367.475,314.056c-6.829-7.833-20.656-5.895-22.234-15.61c0,0,1.621-1.026,6.216,1.308
				c3.858,1.96,5.829,4.773,13.522,11.291C378.009,322.084,367.475,314.056,367.475,314.056z"/>
			<path style="fill:#F99C15;" d="M354.4,297.507c2.258,7.706,10.107,9.373,13.876,24.412l8.063-0.988c0,0,0,0-0.003-0.005
				l4.717,0.989c-0.121-0.308-5.357-2.454-4.129-21.634c0.005-0.06,0.007-0.125,0.012-0.185c-0.635-9.966,0.614-18.094-0.548-18.246
				c-9.063,2.621-16.212,0.919-19.418,1.207c-0.65,0.062-1.318,0.456-1.708,1.193c-0.266,0.509-0.638,1.239-0.994,2.169
				C353.348,288.836,352.988,292.681,354.4,297.507z"/>
			<path style="fill:#F9D641;" d="M354.268,286.417c3.311,7.62,16.978,14.184,22.734,16.829c0.005-0.06-0.071-3.092-0.065-3.152
				c-0.635-9.966,0.614-18.094-0.548-18.246c-7.948,0.9-16.212,0.919-19.418,1.207c-0.65,0.062-1.318,0.456-1.708,1.193
				C354.996,284.757,354.624,285.487,354.268,286.417z"/>
			<path style="fill:#E86B18;" d="M376.336,320.918c1.567-21.541-2.672-21.868-2.762-31.132c-0.056-5.782,2.815-7.935,2.815-7.935
				s2.178,1.584,2.833,6.459C380.322,296.492,376.217,320.61,376.336,320.918z"/>
			<path style="fill:#F9D641;" d="M373.086,317.398l9.085,4.838c10.157-5.373,18.087-11.152,22.571-15.664
				c2.264-2.264,3.911-4.411,4.891-6.363c0.605-1.198,0.959-2.32,1.047-3.358c0.187-2.117-0.725-3.859-2.837-5.089
				c-5.471-3.025-11.175-6.378-18.353-9.931c-1.012-0.308-3.745,0.224-5.496,7.365c-0.227,0.941-0.44,2.001-0.631,3.187
				c-2.401,15.058-7.212,21.743-9.288,24.028c-0.569,0.628-0.931,0.93-0.981,0.978l-0.001,0.005
				C373.086,317.398,373.086,317.398,373.086,317.398z"/>
			<path style="opacity:0.6;fill:#FFE36C;" d="M383.993,289.197l26.686,7.655c0.187-2.117-0.725-3.859-2.837-5.089
				c-5.471-3.025-11.175-6.378-18.353-9.931C388.477,281.524,385.744,282.056,383.993,289.197z"/>
			<path style="fill:#FFBB22;" d="M373.085,317.398l9.086,4.838c11.441-5.17,18.085-11.154,22.571-15.661
				c2.263-2.268,3.91-4.412,4.891-6.366c-3.561,4.393-19.372,12.044-33.907,14.099c-0.624,1.013-2.584,3.032-2.636,3.08
				l-0.001,0.005C373.085,317.398,373.085,317.398,373.085,317.398z"/>
			<path style="fill:#F7820D;" d="M373.092,317.388c7.178-7.972,14.338-18.318,16.611-26.968c1.399-5.322-0.638-8.66-0.638-8.66
				s-3.669-1.127-5.699,10.62C380.057,311.527,373.333,317.157,373.092,317.388z"/>
		</g>
		
			<rect x="332.956" y="313.785" transform="matrix(0.1593 -0.9872 0.9872 0.1593 -42.4845 685.4471)" style="fill:#9978FF;" width="96.496" height="107.765"/>
		<path style="opacity:0.3;fill:#307270;" d="M415.717,381.275l-3.706-3.025l3.646-17.232
			C414.595,372.333,415.717,381.275,415.717,381.275z"/>
		
			<rect x="292.239" y="328.372" transform="matrix(0.1593 -0.9872 0.9872 0.1593 -70.231 639.7277)" style="fill:#5848BC;" width="96.496" height="65.453"/>
		
			<rect x="400.05" y="300.348" transform="matrix(0.1593 -0.9872 0.9872 0.1593 16.825 687.3223)" style="fill:#6A52CE;" width="23.821" height="66.869"/>
		
			<rect x="333.545" y="287.621" transform="matrix(0.1593 -0.9872 0.9872 0.1593 -28.4956 612.645)" style="fill:#6A52CE;" width="23.821" height="70.865"/>
		<polygon style="opacity:0.9;fill:#403B72;" points="312.385,329.709 438.622,350.075 438.102,353.299 416.446,349.805 
			404.09,420.264 386.897,417.49 398.459,346.903 353.467,339.644 342.167,410.241 300.478,403.516 		"/>
		<polygon style="fill:#FC7E17;" points="340.91,410.071 324.672,407.451 334.302,333.441 350.541,336.061 		"/>
		<path style="fill:#E86B18;" d="M368.942,314.754c-1.766-0.862-4.312-1.908-7.127-2.709c-2.816-0.801-8.189-1.494-8.908-0.975
			c-0.719,0.519-0.303,1.164-0.303,1.164L368.942,314.754z"/>
		<path style="fill:#DD5C14;" d="M350.487,336.392l-16.239-2.62l3.867-23.968l17.541,2.83c0,0-1.29-0.289-1.48,0.893
			C353.985,314.709,350.487,336.392,350.487,336.392z"/>
		<polygon style="fill:#FFDB43;" points="409.85,321.377 406.055,344.898 422.273,347.515 422.294,347.518 426.088,323.997 		"/>
		<path style="fill:#FFA022;" d="M404.564,370.142l9.033,7.384l-9.055,42.812l-16.242-2.62l7.574-35.753
			c0.002,0.015,0.006,0.021,0.006,0.021L404.564,370.142z"/>
		<path style="fill:#F9BC35;" d="M420.023,347.152l-2.781,13.142c0.385-4.088,1.056-8.487,2.168-12.889
			c0.028-0.113,0.056-0.226,0.084-0.339L420.023,347.152z"/>
		<path style="fill:#EF7507;" d="M419.41,347.406c-1.112,4.401-1.782,8.801-2.168,12.889l-3.646,17.232l-4.643,20.503l-16.231-1.153
			l11.083-52.341l15.688,2.531C419.466,347.18,419.438,347.293,419.41,347.406z"/>
		<path style="opacity:0.6;fill:#307270;" d="M419.494,347.067l-15.688-2.531l-7.932,37.428c-0.159-0.593-4.083-15.557,0.271-36.114
			c0.816-3.847,5.59-15.9,6.672-22.606c0.538-3.334-0.305-3.054-4.331-3.704l-9.831-1.586c-0.258-0.042,5.997-0.496,14.97,1.221
			c13.664,2.615,17.326,1.391,19.109,4.326C424.437,326.315,422.221,336.26,419.494,347.067z"/>
		<path style="fill:#F9D641;" d="M388.35,317.887c10.273,0.404,15.356,0.99,17.622,3.156c1.115,1.064,1.555,2.51,1.593,4.504
			c0.055,2.731-0.988,6.619-2.073,10.387c-0.938,3.263-1.908,6.433-2.228,8.678c-2.952,20.877,4.324,33.104,4.324,33.104
			l8.354-9.743l11.065,9.176c0,0-5.239-15.744-2.975-31.198c0.56-3.82,1.508-7.461,2.37-10.662c1.44-5.358,2.638-9.482,1.379-11.158
			c-0.635-0.846-1.813-1.518-3.535-2.1c-3.89-1.315-10.563-2.195-20.083-3.731C395.821,316.954,388.581,317.816,388.35,317.887z"/>
		<path style="fill:#F9D641;" d="M420.741,365.188l1.227,7.783l-6.026-4.997l-8.354,9.743c0,0-3.259-5.49-4.528-15.381
			L420.741,365.188z"/>
		<path style="fill:#FFA022;" d="M328.128,339.024l5.922,1.108l5,3.734c0,0,4.404-0.574,6.526-13.729
			c0.792-4.912,4.316-12.568,5.456-16.056c0.066-0.211,0.157-0.4,0.259-0.577c0.104-0.186,0.223-0.352,0.346-0.512
			c3.089-3.886,12.607,0.343,20.066,2.212c-0.26-0.19-6.845-3.243-15.138-4.581c-19.148-3.089-20.723-3.75-23.563-1.783
			c-0.318,0.221-0.592,0.547-0.83,0.965c-0.109,0.19-0.209,0.378-0.295,0.567c-1.396,2.985,2.396,7.559,0.908,16.008
			C330.121,341.522,335.931,335.089,328.128,339.024z"/>
		<path style="fill:#FFA022;" d="M321.472,346.378l11.968-4.342l6.284,10.987c0,0,6.429-10.128,8.551-23.284
			c0.793-4.912,1.622-12.17,2.762-15.658c0.066-0.211,0.157-0.4,0.259-0.577l-19.414-3.132c-1.396,2.985-0.438,5.948-1.926,14.398
			C327.292,339.912,321.655,346.13,321.472,346.378z"/>
	</g>
	<path style="fill:#964732;" d="M227.656,369.565c-4.669-4.928-7.926-9.736-7.983-12.325c-0.057-2.589,9.539-1.561,20.173,0
		c10.634,1.561,26.457,0.547,31.512-0.323c5.055-0.87,8.906-1.705,7.954,2.878c-0.951,4.583,0.086,6.658-2.378,11.456
		c-2.464,4.798,2.983,1.038-5.317,6.484c-8.299,5.447-16.469,5.576-21.008,4.669C246.071,381.496,227.656,369.565,227.656,369.565z"
		/>
	<g>
		<g>
			<g>
				<g>
					<path style="fill:#05487A;" d="M259.854,329.776c0,0,12.692,10.969,28.405,6.535l0.222,0.163
						c-7.338,2.422-22.839,6.817-32.554-0.155L259.854,329.776z"/>
					<path style="fill:#00A4FF;" d="M255.928,336.318c0,0,2.033-1.051,5.125-2.047c2.654-0.857,6.214-1.716,10.261-1.901
						c5.003-0.228,10.115,0.707,17.127,4.122l-0.014,0.004c-2.819-4.168-10.226-9.162-15.86-10.269
						c-2.634-0.517-5.363-0.523-8.291,0.299c-1.374,0.386-2.813,0.958-4.329,1.758L255.928,336.318z"/>
					<path style="fill:#0A5F93;" d="M261.609,308.897c0,0,3.525,27.55,26.812,27.577l0.037,0.026
						c-8.384,2.176-32.011,2.493-35.846-17.888L261.609,308.897z"/>
					<path style="fill:#0A5F93;" d="M288.486,336.522c20.978-11.591,11.866-37.072,11.866-37.072l12.135,3.902
						c5.844,19.912-17.728,30.199-23.964,33.205L288.486,336.522z"/>
					<path style="fill:#009EFF;" d="M312.484,303.354c0,0-2.705,1.27-6.338,3.745c-3.159,2.149-7.003,5.195-10.318,9.067
						c-0.388,0.446-0.763,0.904-1.134,1.374c-4.004,5.101-6.893,11.395-6.313,18.641l-0.231-0.255
						c-0.774-3.264-2.086-8.282-2.399-13.835c-0.201-3.515,0.002-7.25,0.994-10.863c0.787-2.883,2.079-5.679,4.065-8.218
						c1.803-2.3,4.172-4.369,7.236-6.073L312.484,303.354z"/>
					<path style="fill:#0466AF;" d="M288.151,335.926l0.283,0.545c-0.578-7.234,2.257-13.829,6.26-18.93l-8.943,4.55
						C286.065,327.644,287.377,332.662,288.151,335.926z"/>
					<path style="fill:#0A4D89;" d="M288.255,336.153c13.431-1.876,26.995-18.07,26.995-18.07l3.919,6.614
						c-9.857,9.173-25.422,11.693-30.734,11.822L288.255,336.153z"/>
					<path style="fill:#009EFF;" d="M319.165,324.696c0,0-2.969-0.261-7.288,0.286c-2.594,0.328-5.663,0.947-8.842,2.083
						c-0.95,0.337-1.906,0.723-2.865,1.161c-0.923,0.42-1.848,0.891-2.759,1.413c-2.928,1.674-6.597,3.91-8.953,6.827l-0.013-0.012
						c0.283-0.931,0.991-2.929,1.614-4.116c0.171-0.323,0.354-0.655,0.546-0.988c1.47-2.537,3.625-5.389,6.353-7.963
						c2.711-2.558,5.982-4.829,9.675-6.208c2.745-1.031,5.712-1.562,8.822-1.352L319.165,324.696z"/>
				</g>
				<path style="fill:#0074FF;" d="M288.448,336.526l-0.029-0.003c-2.797-6.323-7.73-10.424-12.941-13.124
					c-0.836-0.432-1.678-0.828-2.526-1.186c-4.016-1.71-8.072-2.628-11.51-3.113c-5.149-0.736-8.829-0.491-8.829-0.491l9.903-13.1
					c2.963-0.097,5.595,0.257,7.926,0.953c2.112,0.633,3.982,1.551,5.631,2.685c2.03,1.382,3.734,3.084,5.178,4.967
					C286.011,320.325,287.673,328.141,288.448,336.526z"/>
				<path style="fill:#22BBFF;" d="M311.878,324.983c-2.594,0.328-5.663,0.947-8.842,2.083c-0.95,0.337-1.906,0.723-2.865,1.161
					c-0.629-1.299-1.88-2.974-3.211-4.84c2.711-2.558,5.982-4.829,9.675-6.208L311.878,324.983z"/>
				<path style="fill:#4AD0FF;" d="M306.147,307.099c-3.159,2.149-7.003,5.195-10.318,9.067l-9.083-4.939
					c0.787-2.883,2.079-5.679,4.065-8.218L306.147,307.099z"/>
				<path style="fill:#4AD0FF;" d="M276.026,309.101l-3.141,13.119c-4.015-1.709-8.07-2.627-11.507-3.111
					c-5.148-0.735-8.827-0.491-8.827-0.491l9.927-13.108c2.962-0.097,5.576,0.21,7.907,0.905
					C272.496,307.049,274.378,307.968,276.026,309.101z"/>
				<g>
					<g>
						<polygon style="fill:#F9E3D4;" points="335.038,406.995 244.796,431.546 223.587,353.588 325.8,325.781 						"/>
						
							<rect x="322.761" y="321.888" transform="matrix(0.9649 -0.2625 0.2625 0.9649 -82.9857 103.4037)" style="fill:#A8B3C7;" width="45.488" height="80.791"/>
						
							<rect x="341.007" y="321.45" transform="matrix(0.9649 -0.2625 0.2625 0.9649 -81.5446 103.4678)" style="fill:#0A5F93;" width="10.905" height="70.936"/>
						
							<rect x="271.831" y="340.045" transform="matrix(0.9649 -0.2625 0.2625 0.9649 -90.1527 86.5382)" style="fill:#039BEF;" width="13.926" height="81.245"/>
					</g>
					<path style="opacity:0.9;fill:#837DAA;" d="M274.794,339.657c-11.559,4.924-12.953,8.436-12.953,8.436
						c5.368,0.732,9.369,4.5,9.369,4.5c1.558-8.125,15.209-16.098,10.99-14.951L274.794,339.657z"/>
				</g>
				<path style="fill:#0DAEFF;" d="M288.409,336.226l0.014,0.026c0,0-9.72-1.415-27.588,13.05c0,0-2.842-3.618-8.17-5.928
					C252.664,343.373,273.536,332.966,288.409,336.226z"/>
				<path style="opacity:0.9;fill:#837DAA;" d="M284.005,337.151c-6.915,4.465-8.849,20.821-8.849,20.821
					c3.804-1.035,13.007,1.823,13.007,1.823c-3.188-15.473,1.967-23.997,3.248-24.659L284.005,337.151z"/>
				<path style="fill:#1FC0FF;" d="M291.178,335.199c0,0-6.755,3.436-12.347,15.037c-1.037,2.156-2.037,4.599-2.949,7.349
					c-0.595,1.811-1.15,3.749-1.654,5.837c0,0-6.917-5.941-12.723-6.935c0,0,0.907-1.34,2.596-3.372
					c1.061-1.279,2.436-2.833,4.092-4.499c3.869-3.892,9.269-8.404,15.81-11.465L291.178,335.199z"/>
			</g>
		</g>
		
			<rect x="232.543" y="373.434" transform="matrix(0.9649 -0.2625 0.2625 0.9649 -90.0772 86.5628)" style="fill:#039BEF;" width="92.762" height="13.926"/>
	</g>
	<path style="fill:#AD5934;" d="M430.305,546.417c-2.552,5.219-10.26,43.531-10.26,43.531
		c-10.572,61.406-109.419,70.172-175.825,30.355c-18.301-10.966-34.132-25.635-44.973-43.894c-2.272-3.828-4.326-7.812-6.142-11.961
		c-13.497-30.864-13.539-70.484,9.482-118.507c2.355-4.907,4.388-9.887,6.152-14.856l0.01-0.01
		c2.148-6.059,3.89-12.086,5.301-17.937c2.116-8.798,3.475-17.19,4.336-24.671c0.716-6.131,1.1-11.65,1.286-16.277
		c0.374-9.234,0-14.95,0-14.95s24.66,33.572,100.518-2.023c18.093-8.496,47.266-14.348,73.388-13.372
		c23.187,0.861,44.413,5.457,55.306,15.686C497.717,403.406,432.846,541.21,430.305,546.417z"/>
	<linearGradient id="SVGID_1_" gradientUnits="userSpaceOnUse" x1="386.1355" y1="353.0442" x2="231.557" y2="641.4526">
		<stop  offset="0.175" style="stop-color:#6E3020"/>
		<stop  offset="0.4269" style="stop-color:#753423"/>
		<stop  offset="0.786" style="stop-color:#873F2B"/>
		<stop  offset="1" style="stop-color:#964732"/>
	</linearGradient>
	<path style="opacity:0.8;fill:url(#SVGID_1_);" d="M430.305,546.417c-2.552,5.219-10.26,43.531-10.26,43.531
		c-10.572,61.406-109.419,70.172-175.825,30.355c-5.218-5.363-6.65-13.798-6.245-22.627c45.907,6.795,98.536-35.802,102.105-90.35
		c4.658-71.283-53.76-71.884-79.354-71.998c-25.583-0.114-49.569-11.506-51.976-4.254c2.148-6.059,3.89-12.086,5.301-17.937
		c2.116-8.798,3.475-17.19,4.336-24.671c0.716-6.131,1.1-11.65,1.286-16.277c0.374-9.234,0-14.95,0-14.95
		s24.66,33.572,100.518-2.023c18.093-8.496,47.266-14.348,73.388-13.372c23.187,0.861,44.413,5.457,55.306,15.686
		C497.717,403.406,432.846,541.21,430.305,546.417z"/>
	<path style="fill:#BA663C;" d="M386.328,353.475c-3.112,4.896-5.509,8.963-5.011,10.426c1.401,4.129-10.623,13.445-25.075,24.535
		c-9.659,7.418-20.189,18.02-39.952,25.5c-9.804,3.714-21.869,6.671-37.234,8.092c-25.562,2.366-52.038-0.643-65.68-6.214
		c-11.09-4.524-15.997-12.304-13.518-14.649c3.849-3.631,15.914-5.623,19.815-17.595c1.173-3.569,4.098-0.384,5.779-3.786
		c0,0-2.396-3.081-5.779-7.594c0.374-9.234,0-14.95,0-14.95s20.469,32.763,100.04-6.785c31.269-15.541,48.76-13.57,73.866-8.611
		C391.369,345.694,388.651,349.822,386.328,353.475z"/>
	<path style="fill:#964732;" d="M381.317,363.901c1.401,4.129-10.623,13.445-25.075,24.535c-9.659,7.418-20.189,18.02-39.952,25.5
		c5.986-5.499,11.833-31.349,24.198-48.002c7.627-10.273,27.954-25.002,36.513-20.801c4.575,2.251,7.573,5.415,9.327,8.341
		C383.215,358.371,380.819,362.438,381.317,363.901z"/>
	<path style="fill:#EF4136;" d="M479.054,171.424c0,0-10.551,58.097-20.303,63.066c-9.742,4.969-84.323-8.123-105.611,10.374
		c-3.569,3.102-6.707,6.517-10.551,8.383c-47.894,23.242-104.46-0.218-120.52-21.361c-4.98-6.546-6.494-9.337-2.988-8.953
		c1.276,0.125,3.216,0.664,5.903,1.608c19.535,6.816,48.482,15.785,63.27-17.681c20.323-45.993,33.388-68.561,72.458-80.647
		C427.203,105.651,475.257,139.077,479.054,171.424z"/>
	<path style="fill:#CF2F2F;" d="M342.589,253.247c-59.674,42.909-104.46-0.218-120.52-21.361c-4.98-6.546-6.494-9.337-2.988-8.953
		c15.136,15.842,31.143,25.418,56.074,20.001c24.538-5.331,28.555-26.977,36.725-50.077c4.944-13.978,12.324-21.87,8.445,5.063
		c-3.579,24.847,13.663,33.499,13.663,33.499S338.792,242.261,342.589,253.247z"/>
	<path style="fill:#CF2F2F;" d="M354.698,763.669c2.912-8.695,4.819-9.206,7.669-22.437c2.851-13.232,29.339-55.361,40.673-105.171
		c6.719-29.53,49.323,33.792,58.314,31.397c8.991-2.395,15.511-15.947,4.298,8.811c-11.214,24.758-32.88,85.029-74.264,87.4
		C350.003,766.04,354.698,763.669,354.698,763.669z"/>
	<ellipse style="fill:#9B98B7;" cx="425.034" cy="813.207" rx="214.005" ry="11.291"/>
	<path style="fill:#CF2F2F;" d="M509.528,563.597c0,8.341-0.83,17.035-2.324,25.738c-7.138,41.747-29.36,83.877-47.245,89.967
		c0,0-48.106,3.102-62.288-21.288c0,0,11.215-51.872,24.442-87.933c6.204-16.911,31.777-17.263,53.677-14.099
		C493.925,558.586,509.528,563.597,509.528,563.597z"/>
	<g>
		<path style="fill:#FFB287;" d="M523.287,793.401c-8.663,0-16.012-6.66-16.719-15.445c-3.421-42.507-18.274-87.565-40.75-123.618
			c-10.262-16.46-29.723-31.163-46.894-44.135c-22.237-16.8-41.442-31.308-42.614-50.893c-0.554-9.257,6.501-17.21,15.759-17.764
			c9.163-0.549,17.046,6.356,17.745,15.471c0.202,0.547,1.441,3.292,7.564,8.96c5.696,5.273,13.513,11.178,21.79,17.431
			c19.497,14.73,41.597,31.425,55.149,53.164c25.223,40.459,41.889,91.01,45.726,138.691c0.744,9.244-6.147,17.34-15.39,18.084
			C524.194,793.383,523.739,793.401,523.287,793.401z"/>
	</g>
	<path style="fill:#EF4136;" d="M367.526,567.83c0,18.529,10.592,32.908,25.085,46.239c7.075,6.536,15.095,12.802,23.249,19.193
		c20.272,15.873,42.857,33.551,48.459,52.235c0.622,2.064,1.567,6.494,3.403,6.878c0,0,3.704-8.479,33.696-20.689
		c15.852-6.442,18.715-2.207,18.954-1.719c-8.102-28.55-27.648-56.769-47.816-77.227c-5.841-5.924-11.733-11.194-17.408-15.645
		c-9.669-7.573-27.731-8.569-30.345-13.477c0.093,0.198,0.788,1.702,0.788,4.212H367.526z"/>
	<path style="fill:#CF2F2F;" d="M367.526,567.83c0,18.529,10.592,32.908,25.085,46.239c-0.384-0.571-0.934-1.214-1.67-1.919
		c-9.679-9.337,47.034-20.749,60.175-21.783c10.622-0.836,16.897-0.605,21.44,2.372c-8.942-9.999-11.733-11.194-17.408-15.645
		c-9.669-7.573-27.731-8.569-30.345-13.477c0.093,0.198,0.788,1.702,0.788,4.212H367.526z"/>
	<g>
		<polygon style="fill:#6D4739;" points="403.038,623.07 403.034,623.067 403.041,623.072 		"/>
	</g>
	<g>
		<g>
			<g>
				<path style="fill:#A3412E;" d="M495.866,231.979c1.914,29.818-30.343,84.709-73.469,91.031s-82.962-8.417-91.205-51.318
					l-7.394-42.259c-8.243-42.901,30.919-32.272,74.158-38.506l30.253-13.705c43.238-6.234,57.829-15.231,63.8,28.044
					L495.866,231.979z"/>
				<path style="fill:#EF4136;" d="M544.018,561.543c0,0-21.765,11.235-44.6,16.61c-4.513,1.058-12.968-34.64-14.763-42.473
					c-0.218-0.965-0.342-1.505-0.342-1.505s-0.093,0.726-0.28,2.003c-1.349,9.212-7.418,47.183-15.873,47.815
					c-25.116,1.899-71.355,5.27-77.808,4.845c-0.01,0-11.588-2.977-21.579-5.54c-7.573-1.94-14.234-3.652-14.234-3.652
					s0-17.979,7.376-41.301c0.228-0.726,0.405-1.473,0.539-2.241c1.1-6.142-0.623-13.363-1.328-20.988
					c-1.992-21.692-9.015-46.373-14.69-70.027c-0.789-3.289-1.556-6.567-2.272-9.804c-7.055-31.839-9.897-60.669,7.802-76.21
					c5.156-4.513,12.055-7.905,21.091-9.918c0.01,0,0.01,0,0.021,0c0.892-0.208,1.815-0.394,2.759-0.56
					c0.021,0,0.042-0.01,0.062-0.01c2.666-0.488,5.498-0.861,8.517-1.121h68.326c44.568,0,45.243,47.255,53.646,82.829
					c6.992,29.598,8.497,64.487,8.248,91.98c-0.073,8.393,0.363-8.507,5.737-3.89C528.83,525.668,544.018,561.543,544.018,561.543z"
					/>
				<path style="fill:#F2EAE9;" d="M472.559,449.293c1.535,12.999-12.646,22.118-14.368,17.305
					c-1.733-4.814-10.032-42.224-38.147-60.96c-8.86-5.903-16.101-13.248-21.817-20.759c-12.428-16.318-17.688-33.426-16.817-38.312
					c1.732-9.679,5.498-18.736,20.583-22.16c4.223-0.954,8.943-1.348,13.891-1.182c18.155,0.602,39.371,8.725,50.108,24.245
					C489.024,380.759,469.219,421.115,472.559,449.293z"/>
				<path style="fill:#CFCBC8;" d="M409.317,374.026c-2.397,3.486-6.432,7.335-11.09,10.852
					c-12.428-16.318-17.688-33.426-16.817-38.312c1.732-9.679,5.498-18.736,20.583-22.16c4.223-0.954,8.943-1.348,13.891-1.182
					C415.998,341.45,415.407,365.198,409.317,374.026z"/>
				<path style="fill:#FFB287;" d="M451.001,343.793c0,11.885-2.091,20.447-14.583,20.447h-4.277
					c-12.492,0-30.842-8.563-30.842-20.448v-16.599c0-11.885,10.221-21.609,22.713-21.609h4.277
					c12.492,0,22.712,9.724,22.712,21.609V343.793z"/>
				<path style="fill:#F58D6C;" d="M401.299,332.418c0,7.134,18.023,15.789,27.174,16.438s22.528,1.03,22.528-7.109V300.56
					l-49.702-3.522V332.418z"/>
				<path style="fill:#FFB287;" d="M489.954,261.899c4.062,39.393-15.548,65.547-54.6,71.184
					c-39.052,5.637-87.609-22.411-94.853-61.344l-4.819-23.318c-7.245-38.934,18.909-67.205,58.105-72.863l35.337-5.101
					c39.196-5.658,53.136,16.826,57.198,56.219L489.954,261.899z"/>
				<path style="fill:#F58D6C;" d="M361.415,231.422c5.128-5.542,24.446-15.464,66.794-22.314
					c38.106-6.164,55.474,0.124,56.109,3.679c0.635,3.555,7.828,1.802,5.462-0.691c-2.365-2.494-0.127-11.806-2.202-12.843
					c-2.075-1.038-75.449,4.05-81.47,4.791c-6.021,0.742-46.133,9.656-51.84,14.017s-2.831,15.638-0.811,15.706
					C355.477,233.833,361.415,231.422,361.415,231.422z"/>
			</g>
			<path style="fill:#FFFFFF;stroke:#FFFFFF;stroke-width:1.1506;stroke-miterlimit:10;" d="M390.464,247.862
				c0.831,5.758,6.173,9.753,11.932,8.921c5.758-0.831,9.753-6.173,8.921-11.932c-0.831-5.758-6.173-9.753-11.932-8.921
				C393.627,236.762,389.633,242.104,390.464,247.862z"/>
			<g>
				<path style="fill:#422B27;" d="M397.846,252.628c-2.499,0-4.652-1.868-5.01-4.344c-0.193-1.34,0.146-2.674,0.957-3.759
					c0.81-1.084,1.995-1.788,3.335-1.981c0.245-0.035,0.489-0.053,0.73-0.053c2.499,0,4.653,1.868,5.011,4.345
					c0.399,2.766-1.526,5.341-4.292,5.74C398.331,252.611,398.087,252.628,397.846,252.628z"/>
				<path style="fill:#422B27;" d="M397.857,242.934c2.262,0,4.239,1.661,4.572,3.965c0.365,2.528-1.389,4.873-3.917,5.238
					c-0.224,0.032-0.447,0.048-0.667,0.048c-2.262,0-4.239-1.661-4.572-3.965c-0.365-2.528,1.389-4.873,3.916-5.238
					C397.415,242.95,397.638,242.934,397.857,242.934L397.857,242.934z M397.857,242.048L397.857,242.048
					c-0.264,0-0.531,0.02-0.793,0.057c-3.008,0.435-5.102,3.235-4.667,6.242c0.389,2.693,2.731,4.725,5.449,4.725
					c0.264,0,0.53-0.02,0.793-0.057c3.008-0.435,5.102-3.235,4.667-6.242C402.918,244.08,400.575,242.048,397.857,242.048
					L397.857,242.048z"/>
			</g>
			<path style="fill:#FFFFFF;" d="M404.674,244.923c0.161,1.116-0.613,2.152-1.729,2.313s-2.152-0.613-2.313-1.729
				c-0.161-1.116,0.613-2.152,1.729-2.313C403.477,243.033,404.513,243.807,404.674,244.923z"/>
			<path style="fill:#A3412E;" d="M395.336,179.076c0.868,6.012,7.8,6.463-5.195,8.339c-13.352,1.928-33.438,11.358-29.246,40.401
				c1.743,12.077,3.467,24.017,4.24,29.371c0.765,5.301-9.552,9.412-13.417,2.056c-5.129-9.762-15.017-6.375-15.766-6.257
				c-5.547,0.878-8.195-43.922-5.839-48.062c2.356-4.14,13.455-22.557,17.194-25.772c3.74-3.215,33.09-17.849,33.09-17.849
				s9.925-4.793,14.349-0.081C399.171,165.934,395.336,179.076,395.336,179.076z"/>
			<g>
				<path style="fill:#8E3925;" d="M385.86,233.245c-0.366,0-0.735-0.11-1.055-0.338c-0.82-0.584-1.012-1.722-0.428-2.542
					c4.194-5.894,9.728-8.292,17.936-7.778c1.005,0.063,1.768,0.929,1.705,1.933c-0.063,1.005-0.932,1.767-1.933,1.705
					c-6.996-0.441-11.265,1.373-14.738,6.253C386.991,232.978,386.43,233.245,385.86,233.245z"/>
			</g>
			<g>
				<path style="fill:#8E3925;" d="M474.111,221.987c-0.562,0-1.116-0.259-1.473-0.747c-3.112-4.257-10.109-4.181-15.412-1.906
					c-0.925,0.396-1.997-0.031-2.394-0.956c-0.397-0.925,0.031-1.997,0.957-2.394c6.424-2.756,15.359-2.96,19.793,3.105
					c0.594,0.813,0.417,1.953-0.396,2.547C474.861,221.872,474.484,221.987,474.111,221.987z"/>
			</g>
			<g>
				<path style="fill:#FFB287;" d="M470.045,252.221c0.513,8.102,7.5,14.251,15.6,13.736l0,0c8.103-0.515,14.253-7.498,13.737-15.6
					l-0.788-12.446c-0.514-8.103-7.499-14.252-15.601-13.737l0,0c-8.103,0.515-14.251,7.5-13.74,15.602L470.045,252.221z"/>
			</g>
		</g>
	</g>
	<path style="fill:#FFFFFF;stroke:#FFFFFF;stroke-width:1.1506;stroke-miterlimit:10;" d="M453.976,238.694
		c0.831,5.758,6.173,9.753,11.932,8.921c5.758-0.831,9.753-6.173,8.921-11.932c-0.831-5.758-6.173-9.753-11.932-8.921
		C457.139,227.594,453.145,232.936,453.976,238.694z"/>
	<g>
		<path style="fill:#422B27;" d="M461.358,243.46c-2.499,0-4.653-1.868-5.01-4.344c-0.193-1.34,0.146-2.675,0.957-3.759
			c0.811-1.084,1.995-1.788,3.335-1.981c0.245-0.035,0.489-0.053,0.73-0.053c2.499,0,4.652,1.868,5.01,4.344
			c0.399,2.766-1.526,5.341-4.292,5.74C461.842,243.443,461.599,243.46,461.358,243.46z"/>
		<path style="fill:#422B27;" d="M461.37,233.766c2.261,0,4.238,1.661,4.571,3.965c0.365,2.528-1.389,4.874-3.917,5.238
			c-0.224,0.032-0.447,0.048-0.667,0.048c-2.261,0-4.238-1.661-4.571-3.965c-0.365-2.528,1.389-4.874,3.917-5.238
			C460.927,233.782,461.15,233.767,461.37,233.766L461.37,233.766z M461.37,232.88L461.37,232.88c-0.264,0-0.531,0.02-0.793,0.057
			c-3.007,0.434-5.101,3.234-4.667,6.242c0.389,2.693,2.731,4.724,5.448,4.724c0.264,0,0.531-0.02,0.794-0.057
			c3.007-0.434,5.101-3.234,4.667-6.242C466.429,234.911,464.087,232.88,461.37,232.88L461.37,232.88z"/>
	</g>
	<path style="fill:#FFFFFF;" d="M467.821,236.461c0.161,1.116-0.613,2.152-1.729,2.313c-1.116,0.161-2.152-0.613-2.313-1.729
		c-0.161-1.116,0.613-2.152,1.729-2.313C466.625,234.571,467.66,235.345,467.821,236.461z"/>
	<g>
		<path style="fill:#8E2B30;" d="M404.487,285.154c0,0,12.454,25.383,38.65,21.807c28.973-3.955,24.822-30.472,24.822-30.472
			L404.487,285.154L404.487,285.154z"/>
		<g>
			<path style="fill:#F58D6C;" d="M443.118,267.716c7.089-1.013,12.539-5.888,11.637-9.926c-0.328-1.47-2.071-3.049-4.66-1.34
				c-1.188,0.784-4.532,1.984-8.197,2.489c-3.665,0.506-5.756,0.056-7.914-0.267c-4.703-0.703-5.869,1.277-5.769,2.779
				C428.491,265.575,436.019,268.66,443.118,267.716z"/>
		</g>
		<path style="fill:#D85365;" d="M457.848,301.357c-8.588-7.917-27.123-4.96-41.509-1.943c6.321,5.046,15.213,9.129,26.797,7.548
			c6.458-0.882,11.263-2.888,14.842-5.468C457.933,301.448,457.897,301.402,457.848,301.357z"/>
		<path style="fill:#FFFFFF;" d="M404.66,285.486c0.483,0.899,1.984,3.525,4.53,6.497c0,0-2.1-2.22-1.036-2.055
			c0,0,49.966-0.949,55.846-8.951l1.275-4.121l-60.789,8.298L404.66,285.486z"/>
		<g>
			<path style="fill:#FFB287;" d="M438.194,307.794c-22.866,0-34.03-22.184-34.148-22.424l-0.3-0.611l64.624-8.822l0.074,0.476
				c0.018,0.113,1.694,11.42-4.985,20.392c-4.331,5.818-11.146,9.399-20.256,10.642
				C441.476,307.684,439.804,307.794,438.194,307.794z M405.252,285.545c2.115,3.812,14.549,24.107,37.818,20.93
				c8.834-1.206,15.426-4.654,19.594-10.247c5.667-7.605,5.095-16.981,4.866-19.184L405.252,285.545z"/>
		</g>
	</g>
	<path style="fill:#913A26;" d="M561.344,773.99c0,0-11.967,2.833-15.748-4.042c-1.78-3.237-39.566,13.479-39.203,18.682
		c0.735,10.528-0.326,25.208,9.484,24.561c20.862-1.377,73.552-12.319,73.687-23.601
		C589.795,770.221,573.826,771.272,561.344,773.99z"/>
	<path style="fill:#68352D;" d="M573.231,791.376c-12.206,5.359-22.626,8.634-37.512,11.909c-12.272,2.7-27.827,3.091-26.826,6.078
		c0.025,0.076,0.219,0.563,0.261,0.669c0.765,2.393,0.974,5.067,3.983,4.868c20.862-1.377,70.838-21.24,77.093-22.95
		c0.159-0.044-0.15-3.197-0.74-4.826C588.595,786.054,582.186,787.445,573.231,791.376z"/>
	<path style="fill:#5B2C27;" d="M574.537,795.586c-12.206,5.359-22.626,8.634-37.512,11.909c-12.272,2.7-26.993,3.408-25.992,6.396
		c0.562,1.678,3.008,1.171,4.554,1.043c20.759-1.721,61.746-10.257,72.525-20.163c0.309-0.383,0.625-0.718,0.952-0.982
		c0.522-0.609,0.915-1.223,1.164-1.838C589.627,790.71,583.74,791.546,574.537,795.586z"/>
	<path style="fill:#913A26;" d="M407.906,815.229c-0.519,2.459-4.088,3.185-7.916,3.185h-12.48c-14.089,0-22.761-4.274-25.967-6.38
		l-27.585-18.165c-3.963-2.988-2.303-8.227-0.301-11.506c0.01-0.01,0.01-0.01,0.01-0.01c0.207-0.342,0.415-0.664,0.622-0.955
		l10.561-14.824c0.145-0.208,0.301-0.405,0.477-0.602c2.334-2.77,6.474-4.409,9.368-2.303l25.282,19.764
		c0.166,0.114,0.332,0.249,0.508,0.394c1.131,0.903,2.563,2.282,4.087,3.703l0.011,0.021c2.811,2.625,5.955,5.447,8.175,5.903
		C410.012,796.928,408.425,812.76,407.906,815.229z"/>
	<path style="fill:#68352D;" d="M401.195,816.218h-12.704c-14.329,0-23.162-4.353-26.419-6.497l-28.07-18.48
		c-2.336-2.072-2.413-4.199-2.413-4.199s-1.393,2.603-1.911,4.713c-0.394,1.603,1.576,2.809,3.162,4.008l28.07,18.48
		c3.257,2.144,12.091,6.497,26.419,6.497h12.704c3.9,0,7.361-0.387,8.052-1.452l-0.338-4.608
		C406.717,816.17,403.042,816.218,401.195,816.218z"/>
	<path style="fill:#913A26;" d="M384.574,787.529l0.011,0.021c-3.797-3.34-17.326,4.741-28.748-3.973
		c-4.399-3.351-7.293-6.225-9.067-8.694c-2.801-3.901-2.78-6.774-1.442-8.911c0.01-0.021,0.021-0.031,0.031-0.052
		c0,0,7.096-9.669,12.242-17.201c2.148-3.143,3.942-5.913,4.762-7.459c-0.145,0.55-2.137,9.067,11.92,16.931
		c14.545,8.133,19.639,5.53,21.195,3.206l-12.304,18.031l-1.784,2.604l0.726,1.255L384.574,787.529z"/>
	<path style="fill:#CF2F2F;" d="M409.67,530.887c-20.987,10.852-36.124,11.879-47.753,7.459c0.197-6.909,0-14.659-0.788-23.228
		c-1.992-21.692-9.015-46.373-14.69-70.027c-11.65-48.645-17.543-92.892,37.98-97.623l14.504,0.37
		c17.543,29.484,54.673,100.054,54.673,100.054C454.767,473.33,443.107,513.593,409.67,530.887z"/>
	<path style="fill:#CFCBC8;" d="M445.389,373.372c0,2.76-1.037,6.048-1.556,7.947c-0.052,0.197-0.166,0.426-0.332,0.685
		c-1.38,2.21-6.328,6.328-7.179,7.096c-0.934,0.871-26.724,3.807-27.005-0.861c-0.27-4.669-3.766-17.968-16.049-26.973
		c-12.283-9.005-11.049-13.591-10.478-15.53c0.57-1.94,5.789,1.348,9.69,1.94c0,0-2.77-7.501,1.732-10.447
		c4.492-2.936,7.086-10.458,7.086-3.974c0,0.405,0.094,0.799,0.259,1.193c1.629,3.932,10.81,7.563,15.52,10.043
		c5.187,2.738,13.611,5.882,17.803,9.513c4.191,3.631,6.359,6.048,8.434,9.897C445.389,367.75,445.389,370.603,445.389,373.372z"/>
	<path style="fill:#F2EAE9;" d="M445.389,373.372c0,2.76-1.037,6.048-1.556,7.947c-0.052,0.197-0.166,0.426-0.332,0.685
		c-1.733,0.269-3.029-0.353-3.185-2.22c-0.394-5-1.846-10.561-25.583-25.749c-23.737-15.188-12.74-16.454-13.175-19.587
		c1.629,3.932,10.81,7.563,15.52,10.043c5.187,2.738,13.611,5.882,17.803,9.513c4.191,3.631,6.359,6.048,8.434,9.897
		C445.389,367.75,445.389,370.603,445.389,373.372z"/>
	<path style="fill:#F2EAE9;" d="M547.946,552.706c-3.43-3.48-8.997-3.579-12.547-0.265c-4.784,3.796-24.361,12.359-30.101,11.47
		c-5.334-5.733-17.577-37.888-20.361-53.761c-0.858-4.896-5.524-8.167-10.419-7.31c-4.896,0.858-8.169,5.523-7.31,10.419
		c2.143,12.219,15.631,55.978,27.331,65.165c2.974,2.335,6.713,3.505,11.367,3.505c5.372,0,11.96-1.56,19.99-4.687
		c8.109-3.159,18.541-8.439,21.96-11.809C551.394,561.945,551.435,556.247,547.946,552.706z"/>
	<path style="fill:#CF2F2F;" d="M484.656,535.68c-0.176,0.166-0.384,0.332-0.623,0.498c-0.903,0.674-2.22,1.432-4.067,2.313
		c-10.748,5.114-67.776,12.107-87.249,12.802c-19.462,0.685-20.645,21.786-23.166,30.169c0,0-0.27,0.706-0.778,1.836
		c-7.573-1.94-14.234-3.652-14.234-3.652s0-17.979,7.376-41.301c0.228-0.726,0.405-1.473,0.539-2.241
		c3.112,1.048,6.536,1.877,10.312,2.044c15.904,0.695,107.199-10.717,108.931-8.299C483.058,531.748,487.82,532.837,484.656,535.68z
		"/>
	<path style="opacity:0.4;fill:#CF2F2F;" d="M453.675,521.778c13.363-4.75,2.42-30.277-2.674-50.525
		c-5.093-20.248,11.248-23.587,14.799-8.241c3.551,15.346,21.137,60.023,18.518,63.431
		C481.699,529.85,453.675,521.778,453.675,521.778z"/>
	<path style="fill:#EF4136;" d="M538.354,737.68c-5.498,24.214-22.927,15.904-33.571,10.312
		c-9.71-5.104-25.417-16.039-36.186-48.366c-0.021-0.052-0.031-0.093-0.052-0.135c-1.017-3.04-1.981-6.277-2.895-9.71l31.32-41.321
		c9.69,5.54,4.866-19.172,12.553-5.374c12.18,21.849,26.206,50.721,29.308,74.716C539.765,724.961,539.713,731.694,538.354,737.68z"
		/>
	<path style="fill:#CF2F2F;" d="M538.354,737.68c-5.498,24.214-22.927,15.904-33.571,10.312
		c-9.71-5.104-25.417-16.039-36.186-48.366c8.559,23.654,30.739,33.219,46.872,30.241c16.132-2.967,23.955-5.011,23.374-11.91
		c0-0.052-0.01-0.104-0.01-0.156C539.765,724.961,539.713,731.694,538.354,737.68z"/>
	<path style="fill:#913A26;" d="M550.606,786.771c-4.181,3.476-7.635,5.55-12.823,6.588s-26.797,2.417-26.797,2.417
		c-1.131-3.216-3.766,2.76-4.471-5.187c0-0.011,0-0.011,0-0.021c-0.052-0.571-0.093-1.214-0.124-1.94
		c-0.342-8.828-2.023-21.962-2.998-30.905c-0.228-2.033-0.415-3.838-0.539-5.343c-0.695-8.123,38.043-26.112,39.765-8.123
		c0.156,1.608,0.291,3.133,0.415,4.585c0.477,5.654,0.788,10.229,1.318,13.871c0.871,5.965,2.365,9.461,6.256,11.111
		C557.495,776.76,554.787,783.307,550.606,786.771z"/>
	<path style="fill:#68352D;" d="M544.35,762.713c-2.998,0.56-37.919,10.364-37.836,27.855c-0.052-0.571-0.093-1.214-0.124-1.94
		c-0.342-8.828-2.023-21.962-2.998-30.905c2.427-1.587,4.959-2.905,7.594-3.703c5.986-1.816,17.844-4.223,17.844-4.223l11.827-0.84
		c0,0,1.079-0.156,2.376-0.115C543.51,754.497,543.821,759.072,544.35,762.713z"/>
	<path style="fill:#F2EAE9;" d="M502.5,220.153c0,0.011,0,0.021,0,0.021c-0.84,6.079-7.739,4.171-7.739,4.171
		c-4.617-33.281-53.231-22.201-96.907-13.155c-71.189,14.742-62.153,53.771-69.457,44.517c-3.963-5.011-11.64-17.896-11.65-42.971
		c0-4.814,1.982-9.876,5.602-14.96c19.525-27.378,86.543-55.016,145.491-44.517c21.164,3.776,30.978,40.284,33.831,57.796
		c0.488,2.957,0.778,5.374,0.882,7.003C502.604,218.846,502.583,219.541,502.5,220.153z"/>
	<g>
		<path style="fill:#F2EAE9;" d="M395.108,595.904c-15.093,0-28.302-1.138-36.706-3.314c-5.246-1.358-12.442-3.964-14.362-10.882
			c-1.33-4.79,1.475-9.75,6.264-11.08c3.855-1.071,7.819,0.537,9.914,3.702c4.714,2.067,23.524,4.768,53.453,3.003
			c33.444-1.973,50.632-7.816,54.025-11.263c1.129-1.147,6.459-8.817,0.426-47.255c-4.023-25.636-11.521-55.92-18.135-82.639
			c-1.098-4.434-2.167-8.753-3.187-12.917c-1.183-4.828,1.772-9.7,6.6-10.883c4.828-1.182,9.7,1.772,10.883,6.6
			c1.017,4.15,2.082,8.455,3.177,12.874c18.547,74.915,30.341,129.299,13.063,146.847c-10.007,10.165-37.207,14.351-58.263,16.074
			C412.959,595.533,403.726,595.904,395.108,595.904z"/>
	</g>
	<g>
		<path style="fill:#682B23;" d="M518.746,523.729c-17.222,8.362-47.525,15.126-78.69,18.736
			c-15.935,1.857-32.098,2.884-46.851,2.884c-11.422,0-21.994-0.612-30.967-1.94c-5.104-0.757-3.714-4.824-2.957-9.928
			c0.757-5.104-2.033-9.14,3.06-8.383c18.913,2.801,46.737,2.085,73.897-0.996c29.795-3.382,59.016-8.745,74.567-16.308
			c4.637-2.251,5.704,1.275,7.965,5.912C521.022,518.344,523.383,521.478,518.746,523.729z"/>
		<path style="fill:#913A26;" d="M518.746,523.729c-17.222,8.362-47.525,15.126-78.69,18.736
			c-1.359-6.152-3.019-13.892-3.818-18.363c29.795-3.382,60.986-10.327,76.538-17.89c4.637-2.251,4.718,2.694,6.98,7.331
			C522.007,518.18,523.383,521.478,518.746,523.729z"/>
	</g>
	<g>
		<path style="fill:#8E3925;" d="M254.034,395.309c-13.156,0-24.639-2.593-31.908-7.75c-5.648-4.007-8.631-9.401-8.628-15.597
			c0.001-2.208,1.792-3.998,4-3.998c0.001,0,0.001,0,0.002,0c2.209,0.001,3.999,1.793,3.998,4.002
			c-0.002,3.591,1.718,6.558,5.257,9.069c11.977,8.498,39.574,8.401,64.195-0.226c12.315-4.315,23.583-11.719,34.479-18.879
			c17.948-11.794,34.903-22.934,55.416-20.508c17.109,2.023,26.544,11.036,34.868,18.989c3.195,3.053,6.213,5.936,9.507,8.309
			c1.792,1.291,2.199,3.791,0.908,5.583c-1.291,1.792-3.791,2.199-5.583,0.908c-3.743-2.696-7.106-5.909-10.357-9.015
			c-8.139-7.775-15.826-15.119-30.281-16.828c-17.619-2.085-33.388,8.279-50.083,19.249c-11.3,7.425-22.985,15.103-36.227,19.743
			C280.35,393,266.447,395.309,254.034,395.309z"/>
	</g>
	<path style="fill:#EF4136;" d="M461.988,418.844c-2.801,47.992-12.851,85.491-35.833,87.145
		c-39.641,2.853-58.926-21.682-81.709-70.089c-0.093-0.207-0.197-0.405-0.28-0.612c-15.728-33.81-11.038-56.229-0.674-69.695
		c8.766-11.401,21.599-16.391,29.567-16.433c0.01,0,0.01,0,0.021,0c4.523,0.021,13.487,12.843,20.386,29.484
		c0.125,0.301,0.249,0.602,0.374,0.892c0.301,0.747,0.602,1.494,0.892,2.252c0.052,0.114,0.094,0.238,0.135,0.353
		c0.042,0.125,0.094,0.249,0.145,0.363c3.071,8.061,5.571,16.807,6.847,25.303c1.961,13.155,7.262,23.311,9.814-15.001
		C413.726,361.763,464.623,373.611,461.988,418.844z"/>
	<path style="fill:#CF2F2F;" d="M393.465,378.643c-3.662-8.351-9.928-17.833-19.317-22.741c-6.837-3.569-15.572-0.685-22.181,3.175
		c-3.766,2.189-6.837,4.699-8.476,6.515c8.766-11.401,21.599-16.391,29.567-16.433c0.01,0,0.01,0,0.021,0
		C385.149,349.594,386.566,362.002,393.465,378.643z"/>
	<path style="fill:#CF2F2F;" d="M393.861,422.915c0,0-10.932,8.547-12.546,25.348c-0.979,10.193,9.738,7.54,10.083-1.752
		C391.54,442.701,393.861,422.915,393.861,422.915z"/>
	<path style="fill:#F2EAE9;" d="M463.762,417.464c-0.01,0.062-0.01,0.115-0.021,0.176c-1.359,12.833-5.633,24.007-24.151,20.573
		c-20.718-3.859-47.11-7.957-46.312-32.897c0.809-24.94,11.64-29.442,23.519-33.353c0,0,10.883,3.382,21.434,7.086
		c5.26,1.836,10.426,3.755,14.119,5.374C463.451,389.276,464.862,406.788,463.762,417.464z"/>
	<path style="fill:#E1BEBC;" d="M439.59,438.212c-20.718-3.859-47.11-7.957-46.312-32.897c0.809-24.94,7.356-27.948,19.235-31.859
		c0,0,15.166,1.887,25.717,5.591c-0.177,0.871-0.519,1.836-1.069,2.915c-3.185,6.276,2.175,22.702,2.175,22.702
		c-10.291,0.228-37.809-15.042-38.038-9.122c-0.405,10.495,16.307,21.101,42.647,24.794
		C458.211,422.34,458.108,441.646,439.59,438.212z"/>
	<path style="fill:#CF2F2F;" d="M393.861,423.451c0,0-11.4,3.303-16.167,8.263c-5.913,6.153,0.428,8.584,5.189,3.065
		C384.836,432.516,393.861,423.451,393.861,423.451z"/>
	<path style="fill:#77677F;" d="M434.179,409.558c-0.28-0.072-0.581-0.156-0.872-0.228c-18.373-4.783-24.992-10.582-27.316-15.395
		c-0.01-0.021-0.01-0.042-0.021-0.052c-1.359-2.822-1.235-5.291-1.162-7.003c0,0,29.702,3.091,41.466,9.835
		C457.915,403.385,462.428,416.675,434.179,409.558z"/>
	<path style="fill:none;stroke:#FFA64D;stroke-width:7;stroke-linejoin:round;stroke-miterlimit:10;" d="M461.422,518.272
		c1.546,10.788,4.08,22.923,4.08,22.923s23.993-4.869,31.777-7.096l-6.171-22.409L461.422,518.272z"/>
	<path style="fill:#BA663C;" d="M296.112,371.963c-3.042,4.864,2.48,5.567-1.751,7.204c-4.231,1.637-1.69,9.417,1.708,8.38
		c3.398-1.037,2.015,3.135,1.842,5.026c-0.173,1.891-17.982,5.457-17.982,5.457s2.94-4.754,0.692-5.457s-3.284-6.409-1.642-9.003
		c1.642-2.594,4.007-6.57,6.369-7.262C287.71,375.617,296.112,371.963,296.112,371.963z"/>
	<path style="fill:#BA663C;" d="M246.608,380.88c-5.046,2.73-0.589,6.066-5.077,5.403c-4.488-0.663-6.115,7.358-2.648,8.132
		c3.467,0.774,0.206,3.721-0.877,5.28c-1.083,1.559-18.334-4.124-18.334-4.124s4.902-2.685,3.293-4.405
		c-1.609-1.72,0.305-7.195,3.012-8.641c2.708-1.446,6.726-3.739,9.122-3.175C237.497,379.913,246.608,380.88,246.608,380.88z"/>
	<g>
		<path style="fill:#8E3925;" d="M423.947,366.337c-1.667,0-3.223-1.051-3.788-2.717c-1.789-5.278-12.599-12.627-25.84-15.155
			c-10.74-2.049-20.364-0.833-25.79,0.99c-2.094,0.704-4.362-0.424-5.065-2.518c-0.703-2.094,0.424-4.362,2.518-5.065
			c6.387-2.145,17.578-3.604,29.837-1.264c12.952,2.472,28.54,10.478,31.917,20.445c0.709,2.092-0.412,4.363-2.505,5.072
			C424.806,366.268,424.373,366.337,423.947,366.337z"/>
	</g>
	<path style="fill:#FFB287;" d="M456.862,385.904c-0.203,0.435,0.499,1.059-0.269,1.194c-0.903,0.156-1.316,0.789-1.909,0.892
		c-10.401,1.805-14.177,2.562-28.038,0.508c-21.485-3.175-11.671,4.409-11.671,4.409l-10.171-6.027
		c-0.249-5.488-0.104-11.37,0.768-16.765c0.415-2.594,0.996-5.063,1.774-7.335c0.01-0.01,0.01-0.01,0.01-0.01
		c0.187-0.56,0.394-1.11,0.612-1.639c0-0.011,0.01-0.021,0.01-0.031c3.828-9.316,11.599-14.348,26.258-7.407
		C458.211,365.042,462.179,374.492,456.862,385.904z"/>
	<path style="fill:#F58D6C;" d="M443.159,382.1c3.026,0.346,4.323-0.346,4.841-1.902c0.519-1.556,1.038-5.965,5.706-6.225
		c4.668-0.259,5.187,2.161,5.014,5.36c-0.173,3.199-0.864,5.274-1.643,6.052s-3.458,2.939-3.458,2.939s-4.063,2.421-5.36,2.421
		c-1.297,0-3.631-0.173-4.15-1.47C443.592,387.979,443.159,382.1,443.159,382.1z"/>
	<path style="fill:#F58D6C;" d="M451.545,382.014c-4.928,1.945-25.936-2.983-35.403-8.818c-9.467-5.836-5.447-15.173-5.706-17.377
		l-2.594,2.983c-0.908,0.778-1.038,4.669-1.686,5.706c-0.648,1.038,2.723,6.354,3.112,7.003c0.389,0.648,6.614,8.04,8.3,9.467
		c1.686,1.427,31.253,8.559,33.198,8.04c1.945-0.519,2.464-1.556,3.761-3.501C455.825,383.57,456.473,380.069,451.545,382.014z"/>
	<path style="fill:#F58D6C;" d="M456.282,386.683c-1.847-2.303-5.706,2.334-14.929,2.594c-9.223,0.259-23.456-7.781-32.036-15.251
		c-1.857-1.618-3.04-2.873-3.745-3.911c-0.872,5.394-3.048,14.868-0.279,22.014c0.186,0.481,0.378,0.943,0.577,1.392
		c0.032,0.116,0.061,0.224,0.101,0.361c0.01,0.011,0.01,0.031,0.021,0.052c0.203,0.421,0.441,0.849,0.715,1.284
		c1.552,2.82,3.676,4.954,7.362,6.691c4.231,2.561,10.359,5.11,19.239,7.421c0.29,0.072,0.591,0.156,0.872,0.228
		c1.278-2.359,2.52-5.009,4.658-6.276c5.944-2.168,9.467-5.187,9.726-13.746c0.018-0.602,7.128-2.282,8.03-2.438
		C456.479,386.942,456.386,386.807,456.282,386.683z"/>
	<g>
		<path style="fill:#8E3925;" d="M445.064,394.223c-7.079,0-15.475-2.339-22.731-5.403c-18.182-7.68-21.23-17.148-21.429-22.108
			c-0.189-4.72,2.145-9.048,5.947-11.025c2.035-1.058,3.795-0.467,4.31,0.294c1.284,1.898-2.017,3.729-1.963,10.399
			c0.015,1.882,1.478,8.507,16.365,14.795c16.516,6.975,23.814,5.502,24.946,4.082c1.037-2.075,0.065-4.02,1.495-6.088
			c1.303-1.885,4.943,0.686,5.836,2.797c1.344,3.179,1.761,5.812-0.729,8.302C454.291,393.086,449.997,394.222,445.064,394.223z"/>
	</g>
	<path style="fill:#8E3925;" d="M407.968,361.131c-0.166,0.612-0.373,1.151-0.612,1.639
		C407.543,362.21,407.75,361.66,407.968,361.131z"/>
	<path style="fill:#E1BEBC;" d="M502.552,218.057c-0.021,0.706-0.042,1.411-0.052,2.096c0,0.011,0,0.021,0,0.021
		c-0.84,6.079-7.739,4.171-7.739,4.171c-4.617-33.281-53.231-22.201-96.907-13.155c-71.189,14.742-62.153,53.771-69.457,44.517
		c-3.963-5.011-11.64-17.896-11.65-42.971c0-4.814,1.982-9.876,5.602-14.96c8.746,17.439,17.369,23.593,50.744,13.724
		c44.15-13.056,126.32-26.426,128.578-0.445C501.862,213.268,502.624,215.505,502.552,218.057z"/>
	<path style="fill:#FFB287;" d="M355.989,269.899c1.505,8.149-3.886,15.973-12.034,17.475l0,0
		c-8.15,1.502-15.974-3.883-17.476-12.033l-2.311-12.518c-1.504-8.151,3.884-15.974,12.035-17.477l0,0
		c8.15-1.502,15.973,3.886,17.479,12.035L355.989,269.899z"/>
	<path style="fill:#F58D6C;" d="M347.34,259.606c-0.673-3.743-4.247-6.23-7.986-5.561c-0.232,0.042-2.045,0.084-2.757,0.212
		c-3.739,0.671-6.233,4.249-5.561,7.993l1.613,8.834c0.673,3.743,4.25,6.229,7.992,5.558c0.232-0.042,0.444-0.126,0.666-0.19
		c0.681,0.088,1.378,0.107,2.09-0.021c3.735-0.669,6.227-4.246,5.556-7.99L347.34,259.606z"/>
	<path style="fill:#9B4430;" d="M495.124,739.605c-1.96,0.556-2.24,1.352-1.915,4.014c0.368,3.009,2.517,6.613,2.354,10.784
		c-0.299,7.639,1.936,17.573,3.513,18.986c0.953,1.315,2.636,2.608,3.767,1.458c5.224-5.311,15.968-9.648,35.799-13.355
		c13.134-3.112,7.724,3.77,11.615,0.225c3.074-3.191,0.715-12.291-4.818-21.531c-2.075-3.465-0.133-9.242-4.693-9.985
		C528.83,728.26,509.971,735.394,495.124,739.605z"/>
	<path style="fill:#68352D;" d="M382.115,783.286c-0.487,0.239-1.027,0.415-1.629,0.539c-6.245,1.297-18.311-3.289-25.946-7.221
		c-2.635-1.349-5.27-1.857-7.77-1.722c-5.467,0.249-10.312,3.507-13.103,7.47c0.207-0.342,0.415-0.664,0.622-0.955l10.561-14.824
		c0.145-0.208,0.301-0.405,0.477-0.602c0.01-0.021,0.021-0.031,0.031-0.052c0,0,7.096-9.669,12.242-17.201
		c1.961,2.864,3.839,7.065,8.424,10.748c6.619,5.322,15.479,14.555,17.149,19.96C383.734,781.232,383.495,782.612,382.115,783.286z"
		/>
	<path style="fill:#FBD777;" d="M545.211,769.869l5.535,5.997l-9.878,1.867l-5.535-5.997L545.211,769.869L545.211,769.869z
		 M545.211,765.869c-0.247,0-0.495,0.023-0.743,0.07l-9.878,1.867c-1.429,0.27-2.599,1.294-3.055,2.675
		c-0.457,1.381-0.128,2.9,0.858,3.969l5.535,5.997c0.765,0.828,1.834,1.287,2.939,1.287c0.247,0,0.495-0.023,0.743-0.07l9.878-1.867
		c1.429-0.27,2.599-1.294,3.055-2.675c0.457-1.381,0.128-2.9-0.858-3.969l-5.535-5.997
		C547.386,766.327,546.317,765.869,545.211,765.869L545.211,765.869z"/>
	<path style="fill:#EFB45E;" d="M382.572,780.793l1.766,7.966h-10.43l-1.766-7.966H382.572L382.572,780.793z M382.572,776.793
		h-10.43c-1.213,0-2.36,0.55-3.12,1.496c-0.759,0.946-1.048,2.185-0.786,3.369l1.766,7.967c0.406,1.831,2.03,3.134,3.905,3.134
		h10.43c1.213,0,2.36-0.55,3.12-1.496c0.759-0.946,1.048-2.185,0.786-3.369l-1.766-7.967
		C386.072,778.096,384.448,776.793,382.572,776.793L382.572,776.793z"/>
	<path style="fill:#9B4430;" d="M365.483,734.361c-0.6-1.663-2.43-1.328-4.084,0.31c-1.87,1.851-3.695,5.261-6.644,7.365
		c-5.4,3.853-10.161,7.422-10.292,9.255c-0.515,7.206,11.455,22.905,26.973,29.539c2.983,1.275,9.581,2.715,12.771,3.06
		c3.823,0.414,5.461-5.647,8.862-14.353c1.275-3.264,8.487-6.521,4.598-7.495C386.984,759.367,370.342,747.833,365.483,734.361z"/>
	<path style="fill:#6F771D;" d="M244.219,620.304c-1.141-0.684-2.282-1.39-3.403-2.106c-0.456-0.291-0.913-0.581-1.369-0.882
		c-3.258-2.116-6.422-4.358-9.493-6.723c-0.612-0.477-1.224-0.965-1.836-1.452c-0.602-0.478-1.203-0.965-1.795-1.452
		c-0.664-0.55-1.318-1.11-1.971-1.671c-0.612-0.529-1.224-1.058-1.826-1.608c-0.612-0.54-1.214-1.09-1.805-1.639
		c-0.57-0.529-1.141-1.058-1.701-1.608c-0.508-0.477-1.006-0.965-1.494-1.453c-0.363-0.353-0.716-0.716-1.068-1.079
		c-0.363-0.363-0.716-0.726-1.069-1.099c-0.529-0.54-1.037-1.09-1.556-1.65c-0.55-0.591-1.089-1.193-1.629-1.795
		c-0.602-0.674-1.193-1.359-1.774-2.044c-0.405-0.477-0.809-0.965-1.204-1.442c-1.089-1.328-2.158-2.687-3.185-4.057
		c-0.456-0.602-0.913-1.214-1.359-1.836c-0.529-0.747-1.058-1.494-1.567-2.251c-0.436-0.633-0.861-1.255-1.276-1.899
		c-0.446-0.674-0.892-1.369-1.318-2.054c-0.436-0.695-0.861-1.39-1.276-2.096c11.204,12.449,24.65,19.183,38.728,21.268
		C237.569,606.506,239.001,614.94,244.219,620.304z"/>
	<path style="fill:#8C9B34;" d="M246.605,561.492c0,0-7.843,18.85-8.632,36.186c-14.078-2.085-27.523-8.818-38.728-21.268
		c-2.272-3.828-4.326-7.812-6.142-11.961c0.716-10.945,3.008-24.234,10.561-34.93C203.665,529.518,226.271,553.192,246.605,561.492z
		"/>
	<path style="fill:#F2EAE9;" d="M239.883,204.913c0,0.944-0.031,1.888-0.104,2.822c-8.04,9.057-23.208,11.298-36.736,4.638
		c-13.258-6.536-20.697-19.524-18.85-31.248c5.872-5.571,13.798-9.005,22.533-9.046
		C224.954,171.984,239.799,186.685,239.883,204.913z"/>
	<path style="fill:#913A26;" d="M535.333,782.639c3.252-1.902,12.574-8.44,21.919-8.111c9.344,0.33,7.615,7.073,6.578,8.111
		c-1.037,1.037-6.743,6.743-6.743,6.743l-14.047,2.94L535.333,782.639z"/>
</g>
</svg>
